<?xml version="1.0" encoding="UTF-8" standalone="no"?>
<!DOCTYPE svg PUBLIC "-//W3C//DTD SVG 1.0//EN" "http://www.w3.org/TR/2001/REC-SVG-20010904/DTD/svg10.dtd">
<!-- Generiert durch Microsoft Visio 11.0, SVG Export, v1.0 architecture_new4.svg Page-1 -->
<svg xmlns="http://www.w3.org/2000/svg" xmlns:xlink="http://www.w3.org/1999/xlink" xmlns:ev="http://www.w3.org/2001/xml-events"
		xmlns:v="http://schemas.microsoft.com/visio/2003/SVGExtensions/" width="16.0354in" height="22.8858in"
		viewBox="0 0 1154.55 1647.78" xml:space="preserve" color-interpolation-filters="sRGB" class="st31">
	<v:documentProperties v:langID="1031" v:metric="true" v:viewMarkup="false">
		<v:userDefs>
			<v:ud v:nameU="msvNoAutoConnect" v:val="VT0(0):26"/>
		</v:userDefs>
	</v:documentProperties>

	<style type="text/css">
	<![CDATA[
		.st1 {fill:#000000;fill-opacity:0;stroke:none;stroke-linecap:round;stroke-linejoin:round;stroke-width:0.75}
		.st2 {fill:#26577b;stroke:none;stroke-linecap:round;stroke-linejoin:round;stroke-width:0.75}
		.st3 {fill:#f7f3e8;stroke:none;stroke-linecap:round;stroke-linejoin:round;stroke-width:0.75}
		.st4 {fill:url(#grad25-12);stroke:#26577b;stroke-linecap:round;stroke-linejoin:round;stroke-width:0.347925}
		.st5 {fill:#6397be;stroke:none;stroke-linecap:round;stroke-linejoin:round;stroke-width:0.75}
		.st6 {fill:#4674a2}
		.st7 {stroke:none;stroke-linecap:round;stroke-linejoin:round;stroke-width:0.75}
		.st8 {fill:#9acae0;stroke:none;stroke-linecap:round;stroke-linejoin:round;stroke-width:0.75}
		.st9 {fill:url(#grad33-23)}
		.st10 {stroke:#4674a2;stroke-linecap:round;stroke-linejoin:round;stroke-width:0.347925}
		.st11 {fill:url(#grad25-12);stroke:#4674a2;stroke-linecap:butt;stroke-width:0.375825}
		.st12 {fill:#ffffff;stroke:#4674a2;stroke-linecap:butt;stroke-width:0.347925}
		.st13 {fill:url(#grad25-12);stroke:#4674a2;stroke-linecap:round;stroke-linejoin:round;stroke-width:0.375}
		.st14 {fill:url(#grad25-44);stroke:#4674a2;stroke-linecap:butt;stroke-width:0.347925}
		.st15 {fill:#4674a2;stroke:none;stroke-linecap:round;stroke-linejoin:round;stroke-width:0.75}
		.st16 {fill:none;stroke:#000000;stroke-linecap:round;stroke-linejoin:round;stroke-width:0.72}
		.st17 {fill:#ffffff;stroke:none;stroke-linecap:butt;stroke-width:0.75}
		.st18 {fill:#808080;stroke:none;stroke-linecap:butt;stroke-width:0.75}
		.st19 {fill:#4d80b8;stroke:none;stroke-linecap:butt;stroke-width:0.75}
		.st20 {fill:#0065a0}
		.st21 {stroke:#000000;stroke-linecap:round;stroke-linejoin:round;stroke-width:0.24}
		.st22 {fill:#ffffff;stroke:#0065a0;stroke-linecap:round;stroke-linejoin:round;stroke-width:0.24;visibility:hidden}
		.st23 {fill:#4d82b8;stroke:none;stroke-linecap:butt;stroke-width:0.75}
		.st24 {fill:none;stroke:none;stroke-linecap:round;stroke-linejoin:round;stroke-width:0.75}
		.st25 {fill:#0065a0;font-family:Calibri;font-size:1.5em;font-weight:bold}
		.st26 {font-size:1em}
		.st27 {fill:#0065a0;stroke:#000000;stroke-linecap:round;stroke-linejoin:round;stroke-width:0.24}
		.st28 {fill:#000000;font-family:Calibri;font-size:3em;font-weight:bold}
		.st29 {fill:#8cbf3f;stroke:none;stroke-linecap:butt;stroke-width:0.75}
		.st30 {fill:#8cbf3f;stroke:none;stroke-linecap:round;stroke-linejoin:round;stroke-width:0.75}
		.st31 {fill:none;fill-rule:evenodd;font-size:12px;overflow:visible;stroke-linecap:square;stroke-miterlimit:3}
	]]>
	</style>

	<defs id="Patterns_And_Gradients">
		<linearGradient id="grad25-12" v:fillPattern="25" v:foreground="#ffffff" v:background="#b7e4ee" x1="0" y1="0" x2="1" y2="0">
			<stop offset="0" style="stop-color:#ffffff;stop-opacity:1"/>
			<stop offset="1" style="stop-color:#b7e4ee;stop-opacity:1"/>
		</linearGradient>
		<pattern id="grad33-23" v:fillPattern="33" v:foreground="#b7e4ee" v:background="#4674a2" x="0" y="0" width="1" height="1"
				patternContentUnits="objectBoundingBox">
			<path d="M 0 1 L 0 0 L 1 0 z" style="fill:url(#grad30-24)"/>
			<path d="M 0 1 L 1 1 L 1 0 z" style="fill:url(#grad25-25)"/>
		</pattern>
		<linearGradient id="grad30-24" v:fillPattern="33" v:foreground="#b7e4ee" v:background="#4674a2" x1="0" y1="1" x2="0" y2="0">
			<stop offset="0" style="stop-color:#b7e4ee;stop-opacity:1"/>
			<stop offset="1" style="stop-color:#4674a2;stop-opacity:1"/>
		</linearGradient>
		<linearGradient id="grad25-25" v:fillPattern="33" v:foreground="#b7e4ee" v:background="#4674a2" x1="0" y1="0" x2="1" y2="0">
			<stop offset="0" style="stop-color:#b7e4ee;stop-opacity:1"/>
			<stop offset="1" style="stop-color:#4674a2;stop-opacity:1"/>
		</linearGradient>
		<linearGradient id="grad25-44" v:fillPattern="25" v:foreground="#b7e4ee" v:background="#7bb4d2" x1="0" y1="0" x2="1" y2="0">
			<stop offset="0" style="stop-color:#b7e4ee;stop-opacity:1"/>
			<stop offset="1" style="stop-color:#7bb4d2;stop-opacity:1"/>
		</linearGradient>
	</defs>
	<g v:mID="0" v:index="1" v:groupContext="foregroundPage">
		<v:userDefs>
			<v:ud v:nameU="AllowShapeMoveCallback" v:prompt="" v:val="VT0(1):26"/>
		</v:userDefs>
		<title>Zeichenblatt-1</title>
		<v:pageProperties v:drawingScale="0.0393701" v:pageScale="0.0393701" v:drawingUnits="24" v:shadowOffsetX="8.50394"
				v:shadowOffsetY="-8.50394"/>
		<v:layer v:name="Verbinder" v:index="0"/>
		<g id="group28-1" transform="translate(14.1732,-793.701)" v:mID="28" v:groupContext="group">
			<title>Tabelle.28</title>
			<g id="group1-2" transform="translate(0,-284.589)" v:mID="1" v:groupContext="group">
				<v:userDefs>
					<v:ud v:nameU="SkinColor" v:prompt="" v:val="VT5(#da8c36)"/>
					<v:ud v:nameU="visVersion" v:prompt="" v:val="VT0(14):26"/>
				</v:userDefs>
				<title>Fuhrpark</title>
				<g id="shape2-3" v:mID="2" v:groupContext="shape" transform="translate(83.4976,-20.7037)">
					<title>Tabelle.2</title>
					<path d="M279.66 1506.31 A11.4701 11.4701 -180 0 0 277.93 1498.05 A107.196 107.196 -180 0 0 224.8 1463.26 A105.943
								 105.943 -180 0 0 192.28 1468.13 A87.8323 87.8323 -180 0 0 154.45 1462.03 A124.779 124.779 -180 0
								 0 98.81 1490.13 A167.879 167.879 -180 0 0 69.08 1534.58 A204.759 204.759 -180 0 0 12.29 1567.93
								 L11.94 1568.28 L10.52 1569.91 L10.41 1570.33 A21.035 21.035 -180 0 0 6.35 1584.44 L0.42 1592.15
								 L0 1606.01 A49.984 49.984 -180 0 0 43.64 1642.33 A75.5511 75.5511 -180 0 0 95.77 1635.21 A13.6684
								 13.6684 -180 0 0 98.98 1637.46 L113.78 1645.84 L116.22 1646.5 L116.71 1646.78 A13.0065 13.0065 -180
								 0 0 122.36 1647.77 A23.182 23.182 -180 0 0 140.98 1631.59 A28.644 28.644 -180 0 0 142.17 1614.19
								 L146.17 1611.67 L227.79 1564.19 L241.17 1571.76 L244.41 1572.84 A12.9548 12.9548 -180 0 0 249.75
								 1573.69 A23.1973 23.1973 -180 0 0 268.37 1557.51 A28.1557 28.1557 -180 0 0 269.2 1538.9 A75.4066
								 75.4066 -180 0 0 283.01 1524.26 A14.08 14.08 -180 0 0 282.18 1509.09 L279.66 1506.31 Z"
							class="st1"/>
				</g>
				<g id="shape3-5" v:mID="3" v:groupContext="shape" transform="translate(169.821,-17.1782)">
					<title>Tabelle.3</title>
					<path d="M155.82 1520.34 L153.05 1518.79 A20.8632 20.8632 -180 0 0 128.32 1534.86 A22.2666 22.2666 -180 0 0 135.52
								 1562.91 L148 1569.96 L148.72 1570.53 L150.14 1571.33 L151.61 1572.16 A27.5803 27.5803 -180 0 0 159.48
								 1573.7 A21.9871 21.9871 -180 0 0 178.1 1557.52 A27.7852 27.7852 -180 0 0 174.88 1530.69 L172.38
								 1528.21 L168.95 1526.24 L155.82 1520.34 ZM29.41 1594.49 L26.64 1592.94 A20.8597 20.8597 -180 0 0
								 1.91 1609 A23.4356 23.4356 -180 0 0 8.71 1637.47 L19.56 1643.61 A9.65372 9.65372 0 0 1 23.51 1645.85
								 L24.91 1646.39 A22.9586 22.9586 -180 0 0 32.09 1647.78 A21.1104 21.1104 -180 0 0 50.71 1631.6 A29.2547
								 29.2547 -180 0 0 48.19 1604.92 L45.69 1602.44 L42.26 1600.47 A13.5406 13.5406 -180 0 0 38.27 1599.56
								 L29.41 1594.49 Z" class="st2"/>
				</g>
				<g id="shape4-7" v:mID="4" v:groupContext="shape" transform="translate(193.802,-27.939)">
					<title>Tabelle.4</title>
					<path d="M18.37 1624.34 L16.99 1622.98 L15.1 1621.89 A11.9071 11.9071 -180 0 0 1.08 1631.07 A13.4165 13.4165
								 -180 0 0 3.95 1646.3 L5.55 1647.21 L8.82 1647.77 A13.4277 13.4277 -180 0 0 19.61 1638.41 A14.6579
								 14.6579 -180 0 0 18.37 1624.34 ZM144.78 1550.95 L143.41 1549.58 L141.51 1548.5 A11.9121 11.9121
								 -180 0 0 127.49 1557.67 A13.435 13.435 -180 0 0 130.37 1572.91 L131.96 1573.81 L135.23 1574.38 A13.4253
								 13.4253 -180 0 0 146.02 1565.02 A14.6382 14.6382 -180 0 0 144.78 1550.95 Z" class="st3"/>
				</g>
				<g id="shape5-9" v:mID="5" v:groupContext="shape" transform="translate(178.366,-142.554)">
					<title>Tabelle.5</title>
					<path d="M179.12 1623.44 A115.58 115.58 -180 0 0 125.99 1588.64 A101.689 101.689 -180 0 0 93.47 1593.52 A100.293
								 100.293 -180 0 0 55.64 1587.42 A122.324 122.324 -180 0 0 -0 1615.52 A47.8855 47.8855 -180 0 0 54.66
								 1647.78 L179.12 1623.44 Z" class="st4"/>
				</g>
				<g id="shape6-13" v:mID="6" v:groupContext="shape" transform="translate(122.725,-30.3474)">
					<title>Tabelle.6</title>
					<path d="M231.08 1505.47 A220.727 220.727 -180 0 0 201.9 1514.17 A226.41 226.41 -180 0 0 167.69 1508.54 A104.958
								 104.958 -180 0 0 111.51 1536 A390.414 390.414 -180 0 0 80.01 1579.03 A226.558 226.558 -180 0 0 0
								 1614.24 A40.458 40.458 -180 0 0 34.82 1647.78 L58.04 1639.89 A28.3687 28.3687 0 0 1 75.61 1614.34
								 A18.2965 18.2965 0 0 1 95.75 1619.17 L185.41 1567.31 A28.37 28.37 0 0 1 202.97 1541.76 A18.3055
								 18.3055 0 0 1 223.13 1546.6 L237.91 1536.97 A52.6837 52.6837 -180 0 0 231.08 1505.47 ZM86 1626.58
								 L84.84 1625.35 L83.23 1624.37 A10.1176 10.1176 -180 0 0 71.31 1632.64 A12.6228 12.6228 -180 0 0
								 73.75 1646.38 L75.1 1647.19 L77.89 1647.71 A11.631 11.631 -180 0 0 87.06 1639.27 A13.8979 13.8979
								 -180 0 0 86 1626.58 ZM212.29 1553.18 L211.05 1551.95 L209.35 1550.97 A10.7389 10.7389 -180 0 0 196.71
								 1559.24 A12.1155 12.1155 -180 0 0 199.3 1572.98 L200.73 1573.79 L203.68 1574.31 A12.1225 12.1225
								 -180 0 0 213.41 1565.87 A13.2276 13.2276 -180 0 0 212.29 1553.18 Z" class="st5"/>
				</g>
				<g id="shape7-15" v:mID="7" v:groupContext="shape" transform="translate(79.5519,-20.5313)">
					<title>Tabelle.7</title>
					<path d="M13.37 1584.47 A43.0577 43.0577 -180 0 0 70.18 1601.35 A48.8653 48.8653 0 0 1 90.95 1632.58 L101.86
								 1627.79 A10.2354 10.2354 0 0 1 100.63 1636.04 A104.406 104.406 0 0 1 61.82 1647.78 A56.0654 56.0654
								 0 0 1 0 1609.37 L0.42 1595.51 L13.37 1584.47 ZM228.84 1557.37 L138.17 1609.59 A10.9677 10.9677 0
								 0 1 141.57 1617.79 L227.62 1567.56 A6.79553 6.79553 -180 0 0 228.84 1557.37 ZM279.66 1509.67 A13.74
								 13.74 0 0 1 283.01 1527.62 A65.9809 65.9809 0 0 1 268.3 1542.9 A26.8859 26.6978 -180 0 0 264.41
								 1535.34 A64.3646 64.3646 -180 0 0 275.92 1523.6 A21.4763 21.4763 0 0 1 279.66 1509.67 Z"
							class="st6"/>
					<path d="M13.37 1584.47 A43.0577 43.0577 -180 0 0 70.18 1601.35 A48.8653 48.8653 0 0 1 90.95 1632.58 L101.86
								 1627.79 A10.2354 10.2354 0 0 1 100.63 1636.04 A104.406 104.406 0 0 1 61.82 1647.78 A56.0654 56.0654
								 0 0 1 0 1609.37 L0.42 1595.51M228.84 1557.37 L138.17 1609.59 A10.9677 10.9677 0 0 1 141.57 1617.79
								 L227.62 1567.56 A6.79553 6.79553 -180 0 0 228.84 1557.37M279.66 1509.67 A13.74 13.74 0 0 1 283.01
								 1527.62 A65.9809 65.9809 0 0 1 268.3 1542.9 A26.8859 26.6978 -180 0 0 264.41 1535.34 A64.3646 64.3646
								 -180 0 0 275.92 1523.6 A21.4763 21.4763 0 0 1 279.66 1509.67" class="st7"/>
				</g>
				<g id="shape8-18" v:mID="8" v:groupContext="shape" transform="translate(79.9697,-35.1542)">
					<title>Tabelle.8</title>
					<path d="M79.56 1625.64 A63.1809 63.1809 0 0 1 7.77 1600.04 L0 1610.13 A45.9812 45.9812 -180 0 0 57.67 1644.07
								 A62.9037 62.9037 -180 0 0 79.56 1625.64 Z" class="st8"/>
				</g>
				<g id="shape9-20" v:mID="9" v:groupContext="shape" transform="translate(83.9231,-42.5737)">
					<title>Tabelle.9</title>
					<path d="M55.33 1642.67 A42.0938 42.0938 0 0 1 4.56 1611.43 L55.33 1642.67 Z" class="st9"/>
					<path d="M55.33 1642.67 A42.0938 42.0938 0 0 1 4.56 1611.43" class="st10"/>
				</g>
				<g id="shape10-27" v:mID="10" v:groupContext="shape" transform="translate(84.4582,-50.8914)">
					<title>Tabelle.10</title>
					<path d="M55.33 1642.67 A42.0901 42.0901 0 0 1 4.56 1611.43 L55.33 1642.67 Z" class="st9"/>
					<path d="M55.33 1642.67 A42.0901 42.0901 0 0 1 4.56 1611.43" class="st10"/>
				</g>
				<g id="shape11-31" v:mID="11" v:groupContext="shape" transform="translate(118.185,-39.8925)">
					<title>Tabelle.11</title>
					<path d="M5.81 1624.55 A156.373 156.373 0 0 1 29.24 1622.12 A12.3783 12.3783 0 0 1 41.34 1630.39 A41.0184 41.0184
								 0 0 1 2.28 1639.44 A16.1218 16.1218 0 0 1 5.81 1624.55 Z" class="st11"/>
				</g>
				<g id="shape12-34" v:mID="12" v:groupContext="shape" transform="translate(85.7163,-75.8103)">
					<title>Tabelle.12</title>
					<path d="M1.91 1647.78 A12.4868 12.4868 -180 0 0 4.25 1628.97 A17.2884 17.2884 -180 0 0 1.91 1647.78 Z"
							class="st12"/>
				</g>
				<g id="shape13-36" v:mID="13" v:groupContext="shape" transform="translate(90.0758,-62.7246)">
					<title>Tabelle.13</title>
					<path d="M51.84 1646.91 A44.0555 44.0555 0 0 1 0 1615.47 A169.836 169.836 0 0 1 58.55 1580.13 A54.259 54.259
								 -180 0 0 111.29 1612.43 A300.66 300.66 0 0 1 51.84 1646.91 Z" class="st13"/>
				</g>
				<g id="shape14-39" v:mID="14" v:groupContext="shape" transform="translate(238.279,-166.188)">
					<title>Tabelle.14</title>
					<path d="M33.39 1618.28 A69.7381 69.7381 0 0 1 85.33 1647.78 L53.63 1640.35 A103.067 103.067 -180 0 0 0 1611.73
								 A85.4205 85.4205 0 0 1 33.39 1618.28 Z" class="st5"/>
				</g>
				<g id="shape15-41" v:mID="15" v:groupContext="shape" transform="translate(148.627,-97.3555)">
					<title>Tabelle.15</title>
					<path d="M29.74 1570.32 A38.8271 38.8271 -180 0 0 86.29 1602.32 A400.446 400.446 -180 0 0 56.39 1644.29 A36.8529
								 36.8529 0 0 1 10.95 1633.64 A37.648 37.648 0 0 1 0 1614.77 A179.526 179.526 0 0 1 28.3 1571.64 L29.74
								 1570.32 Z" class="st14"/>
				</g>
				<g id="shape16-45" v:mID="16" v:groupContext="shape" transform="translate(215.079,-102.869)">
					<title>Tabelle.16</title>
					<path d="M0 1647.78 A105.313 105.313 0 0 1 52.49 1594.19 A71.3263 71.3263 0 0 1 88.18 1599.63 A754.79 754.79
								 0 0 1 -0 1647.78 Z" class="st15"/>
				</g>
				<g id="shape17-47" v:mID="17" v:groupContext="shape" transform="translate(208.563,-92.2057)">
					<title>Tabelle.17</title>
					<path d="M10.85 1630.43 A20.8194 20.8194 0 0 1 29.97 1635.36 A24.8325 24.8325 0 0 1 3.78 1644.5 A8.66256 8.66256
								 0 0 1 10.85 1630.43 Z" class="st8"/>
				</g>
				<g id="shape18-49" v:mID="18" v:groupContext="shape" transform="translate(79.5519,-17.1685)">
					<title>Tabelle.18</title>
					<path d="M279.66 1506.31 A12.3272 12.3272 -180 0 0 277.93 1498.05 A99.314 99.314 -180 0 0 224.8 1463.26 A99.7477
								 99.7477 -180 0 0 192.28 1468.13 A160.584 160.584 -180 0 0 154.45 1462.03 A117.54 117.54 -180 0 0
								 98.81 1490.13 A156.97 156.97 -180 0 0 69.08 1534.58 A242.645 242.645 -180 0 0 12.29 1567.93 L11.94
								 1568.28 L10.52 1569.91 L10.41 1570.33 A21.4515 21.4515 -180 0 0 6.35 1584.44 L0.42 1592.15 L0 1606.01
								 A51.4472 51.4472 -180 0 0 43.64 1642.33 A74.1825 74.1825 -180 0 0 95.77 1635.21 A13.6697 13.6697
								 -180 0 0 98.98 1637.46 L113.78 1645.84 L116.22 1646.5 L116.71 1646.78 A13.0241 13.0241 -180 0 0
								 122.36 1647.77 A23.4632 23.4632 -180 0 0 140.98 1631.59 A28.7106 28.7106 -180 0 0 142.17 1614.19
								 L146.17 1611.67 L227.79 1564.19 L241.17 1571.76 L244.41 1572.84 A12.9534 12.9534 -180 0 0 249.75
								 1573.69 A23.4775 23.4775 -180 0 0 268.37 1557.51 A28.2428 28.2428 -180 0 0 269.2 1538.9 A69.9362
								 69.9362 -180 0 0 283.01 1524.26 A14.0877 14.0877 -180 0 0 282.18 1509.09 L279.66 1506.31 Z"
							class="st16"/>
				</g>
			</g>
			<g id="group55-51" transform="translate(751.181,-285.729)" v:mID="55" v:groupContext="group">
				<title>Cloud Service Request</title>
				<g id="group56-52" transform="translate(0,-84.1493)" v:mID="56" v:groupContext="group">
					<title>base</title>
					<g id="shape57-53" v:mID="57" v:groupContext="shape">
						<title>Tabelle.57</title>
						<path d="M60.45 1647.78 C27.12 1647.78 0 1619.14 0 1583.94 C-0 1549.14 26.49 1520.75 59.29 1520.09 C69.72
									 1506.96 84.97 1499.3 101.46 1499.22 C107.43 1465.55 135.38 1439.99 168.87 1439.99 C191 1439.99
									 211.59 1451.59 224.24 1470.4 C230.8 1468.15 237.68 1466.99 244.62 1466.99 C281.3 1466.99 311.14
									 1498.55 311.14 1537.36 C311.14 1538.05 311.13 1538.74 311.11 1539.43 C326.78 1550.19 336.5 1568.6
									 336.5 1588.69 C336.5 1615.76 319.08 1639.35 294.15 1646.06 L293.72 1646.17 L285.59 1647.78 L60.45
									 1647.78 Z" class="st17"/>
					</g>
					<g id="group58-55" transform="translate(8.85782,-8.85782)" v:mID="58" v:groupContext="group">
						<title>Tabelle.58</title>
						<g id="shape59-56" v:mID="59" v:groupContext="shape" transform="translate(4.42891,-4.42891)">
							<title>Tabelle.59</title>
							<path d="M271 1647.78 L47.17 1647.78 C21.16 1647.78 0 1625.1 0 1597.23 C-0 1569.34 21.16 1546.65 47.17
										 1546.65 C48.97 1546.65 50.78 1546.78 52.71 1547.04 C60.46 1533.85 73.88 1525.79 88.44 1525.79
										 C92.44 1525.79 96.42 1526.43 100.33 1527.7 C100.3 1527.12 100.29 1526.52 100.29 1525.93
										 C100.29 1493.19 125.09 1466.57 155.58 1466.57 C177 1466.57 196.34 1480.16 205.29 1500.95
										 C213.24 1496.09 222.15 1493.56 231.33 1493.56 C260.69 1493.56 284.57 1519.16 284.57 1550.64
										 C284.57 1553.73 284.31 1556.82 283.8 1560 C299.58 1567.14 309.92 1583.53 309.92 1601.97
										 C309.92 1623.28 296.32 1641.42 277.41 1646.51 L271 1647.78 Z" class="st17"/>
						</g>
						<g id="shape60-58" v:mID="60" v:groupContext="shape">
							<title>Tabelle.60</title>
							<path d="M275.86 1647.78 L51.6 1647.78 C23.15 1647.78 0 1623.11 0 1592.8 C0 1561.31 24.91 1535.69 54.85
										 1537.92 C63.63 1524.72 77.65 1516.93 92.87 1516.93 C95.39 1516.93 97.9 1517.16 100.4 1517.61
										 C102.29 1484.24 128.31 1457.7 160.01 1457.7 C181.46 1457.7 201.27 1470.38 211.7 1490.37
										 C219.22 1486.64 227.45 1484.69 235.76 1484.69 C267.56 1484.69 293.42 1512.29 293.42 1546.21
										 C293.42 1548.48 293.3 1550.73 293.05 1553.02 C308.79 1561.54 318.78 1578.66 318.78 1597.54
										 C318.78 1620.61 304.07 1640.68 283 1646.35 L275.86 1647.78 ZM51.6 1546.65 C28.03 1546.65
										 8.86 1567.35 8.86 1592.8 C8.86 1618.23 28.03 1638.92 51.6 1638.92 L274.99 1638.92 L280.98
										 1637.73 C297.9 1633.17 309.92 1616.61 309.92 1597.54 C309.92 1580.96 300.69 1566.07 286.4
										 1559.61 L283.32 1558.21 L283.86 1554.87 C284.33 1551.91 284.56 1549.08 284.56 1546.21 C284.56
										 1517.18 262.67 1493.56 235.76 1493.56 C227.46 1493.56 219.25 1495.89 212.02 1500.3 L207.67
										 1502.96 L205.65 1498.27 C197.36 1479.01 179.45 1466.56 160.01 1466.56 C131.96 1466.56 109.15
										 1491.2 109.15 1521.49 C109.15 1522.03 109.16 1522.56 109.18 1523.07 L109.46 1529.47 L103.38
										 1527.48 C99.93 1526.35 96.39 1525.78 92.87 1525.78 C79.9 1525.78 67.97 1532.91 60.96 1544.86
										 L59.46 1547.4 L56.53 1547 C54.82 1546.76 53.2 1546.65 51.6 1546.65 Z" class="st18"/>
						</g>
					</g>
				</g>
				<g id="group61-60" transform="translate(159.459,0)" v:mID="61" v:groupContext="group">
					<title>overlay_copy</title>
					<g id="shape62-61" v:mID="62" v:groupContext="shape">
						<title>Tabelle.62</title>
						<path d="M73.51 1647.78 L70.38 1622.73 C68.68 1622.09 67.01 1621.41 65.38 1620.67 L45.45 1636.16 L11.62 1602.33
									 L27.11 1582.4 C26.37 1580.77 25.69 1579.1 25.05 1577.4 L0 1574.27 L0 1526.42 L25.05 1523.29
									 C25.69 1521.59 26.37 1519.92 27.11 1518.28 L11.62 1498.36 L45.45 1464.53 L65.38 1480.02 C67.01
									 1479.28 68.68 1478.6 70.38 1477.96 L73.51 1452.91 L121.37 1452.91 L124.5 1477.96 C126.2 1478.6
									 127.87 1479.28 129.5 1480.02 L149.42 1464.53 L183.26 1498.36 L167.76 1518.28 C168.51 1519.92
									 169.19 1521.59 169.82 1523.29 L194.87 1526.42 L194.87 1574.27 L169.82 1577.4 C169.18 1579.1
									 168.5 1580.77 167.76 1582.41 L183.26 1602.33 L149.41 1636.17 L129.5 1620.67 C127.86 1621.41
									 126.19 1622.1 124.49 1622.73 L121.36 1647.78 L73.51 1647.78 Z" class="st17"/>
					</g>
					<g id="shape63-63" v:mID="63" v:groupContext="shape" transform="translate(8.85782,-8.85782)">
						<title>Tabelle.63</title>
						<path d="M177.16 1575.31 L177.16 1543.1 L154.3 1540.24 C152.88 1535.28 150.93 1530.55 148.48 1526.11 L162.6
									 1507.95 L139.82 1485.18 L121.67 1499.3 C117.23 1496.85 112.5 1494.91 107.54 1493.48 L104.69
									 1470.62 L72.47 1470.62 L69.62 1493.48 C64.66 1494.9 59.92 1496.85 55.49 1499.3 L37.33 1485.18
									 L14.55 1507.95 L28.67 1526.11 C26.22 1530.54 24.28 1535.27 22.85 1540.23 L0 1543.09 L0 1575.3
									 L22.85 1578.17 C24.28 1583.13 26.22 1587.86 28.67 1592.29 L14.55 1610.45 L37.33 1633.23 L55.49
									 1619.11 C59.92 1621.56 64.66 1623.5 69.62 1624.93 L72.47 1647.78 L104.68 1647.78 L107.54 1624.93
									 C112.5 1623.5 117.23 1621.56 121.67 1619.11 L139.82 1633.23 L162.6 1610.45 L148.48 1592.29 C150.94
									 1587.86 152.88 1583.13 154.3 1578.17 L177.16 1575.31 ZM122.8 1559.2 C122.8 1578.1 107.48 1593.43
									 88.58 1593.43 C69.68 1593.43 54.35 1578.1 54.35 1559.2 C54.35 1540.3 69.68 1524.97 88.58 1524.97
									 C107.48 1524.97 122.8 1540.3 122.8 1559.2 Z" class="st18"/>
					</g>
				</g>
				<g id="group64-65" transform="translate(17.7334,-48.7623)" v:mID="64" v:groupContext="group">
					<title>Tabelle.64</title>
					<g id="shape65-66" v:mID="65" v:groupContext="shape">
						<title>Tabelle.65</title>
						<path d="M0 1577.24 L73.07 1577.24 L45.96 1550.39 L108.8 1550.39 L150.58 1593.23 L150.58 1605.4 L108.77 1647.78
									 L45.95 1647.78 L73.07 1620.94 L0 1620.94 L0 1577.24 Z" class="st17"/>
					</g>
					<g id="shape66-68" v:mID="66" v:groupContext="shape" transform="translate(8.85782,-8.85782)">
						<title>Tabelle.66</title>
						<path d="M0 1620.94 L85.75 1620.94 L58.63 1647.78 L96.21 1647.78 L132.87 1610.63 L132.87 1605.69 L96.21 1568.1
									 L58.63 1568.1 L85.75 1594.95 L0 1594.95 L0 1620.94 Z" class="st19"/>
					</g>
				</g>
				<g id="shape55-70" v:mID="55" v:groupContext="groupContent">
					<v:textBlock v:margins="rect(0,0,0,0)"/>
				</g>
			</g>
			<g id="group43-71" transform="translate(-845.09,32.1191) rotate(-46.6603)" v:mID="43" v:groupContext="group">
				<v:userDefs>
					<v:ud v:nameU="visVersion" v:val="VT0(14):26"/>
				</v:userDefs>
				<title>1D-Pfeil</title>
				<g id="shape44-72" v:mID="44" v:groupContext="shape">
					<title>Tabelle.44</title>
					<path d="M0 1638.72 L129.3 1638.72 L129.3 1647.78 L138.36 1629.66 L129.3 1611.54 L129.3 1620.6 L0 1620.6 L0 1638.72
								 Z" class="st20"/>
					<path d="M0 1638.72 L129.3 1638.72 L129.3 1647.78 L138.36 1629.66 L129.3 1611.54 L129.3 1620.6 L0 1620.6"
							class="st7"/>
				</g>
				<g id="shape45-75" v:mID="45" v:groupContext="shape">
					<title>Tabelle.45</title>
					<path d="M0 1638.72 L129.3 1638.72 L129.3 1647.78 L138.36 1629.66 L129.3 1611.54 L129.3 1620.6 L0 1620.6 L0 1638.72"
							class="st21"/>
				</g>
				<g id="shape46-78" v:mID="46" v:groupContext="shape" transform="translate(-1.7741,-9.21296)">
					<title>Tabelle.46</title>
					<rect x="0" y="1629.97" width="0.780974" height="17.8123" class="st22"/>
				</g>
			</g>
			<g id="group37-80" transform="translate(430.157,0)" v:mID="37" v:groupContext="group">
				<title>Tabelle.37</title>
				<g id="group19-81" v:mID="19" v:groupContext="group">
					<title>Laptop</title>
					<g id="shape20-82" v:mID="20" v:groupContext="shape">
						<title>Tabelle.20</title>
						<path d="M273.54 1613.14 C273.54 1608.64 271.78 1604.24 268.46 1600.91 L230.78 1563.24 C235.48 1561.06 238.78
									 1556.34 238.78 1550.83 L238.78 1436.42 C238.78 1428.86 232.62 1422.72 225.05 1422.72 L48.47
									 1422.72 C40.91 1422.72 34.75 1428.86 34.75 1436.42 L34.75 1550.83 C34.75 1555.48 37.09 1559.58
									 40.66 1562.06 C40.14 1562.51 39.59 1562.91 39.13 1563.42 L4.51 1601.51 C1.55 1604.75 0 1608.93
									 0 1613.15 C0 1615.53 0 1632.2 0 1632.2 C0 1640.79 6.99 1647.78 15.58 1647.78 L257.95 1647.78
									 C266.54 1647.78 273.53 1640.79 273.53 1632.2 C273.53 1632.2 273.54 1615.38 273.54 1613.14 Z"
								class="st17"/>
					</g>
					<g id="shape21-84" v:mID="21" v:groupContext="shape" transform="translate(6.92497,-6.92497)">
						<title>Tabelle.21</title>
						<path d="M259.69 1639.12 C259.69 1643.91 255.81 1647.78 251.03 1647.78 L8.66 1647.78 C3.88 1647.78 0 1643.91
									 0 1639.12 C0 1634.34 0 1630.47 0 1630.47 L259.69 1630.47 C259.69 1630.47 259.69 1634.34 259.69
									 1639.12 Z" class="st23"/>
					</g>
					<g id="shape22-86" v:mID="22" v:groupContext="shape" transform="translate(41.6745,-90.1804)">
						<title>Tabelle.22</title>
						<path d="M183.39 1519.82 L6.8 1519.82 C3.04 1519.82 0 1522.85 0 1526.6 L0 1641.01 C0 1644.74 3.04 1647.78
									 6.8 1647.78 L183.39 1647.78 C187.14 1647.78 190.19 1644.74 190.19 1641.01 L190.19 1526.6 C190.19
									 1522.85 187.14 1519.82 183.39 1519.82 Z" class="st23"/>
					</g>
					<g id="shape23-88" v:mID="23" v:groupContext="shape" transform="translate(55.3998,-103.875)">
						<title>Tabelle.23</title>
						<rect x="0" y="1547.37" width="162.737" height="100.412" class="st17"/>
					</g>
					<g id="shape24-90" v:mID="24" v:groupContext="shape" transform="translate(6.67914,-31.1624)">
						<title>Tabelle.24</title>
						<path d="M259.01 1641.97 L217.46 1596.95 C216.81 1596.24 215.89 1595.84 214.92 1595.84 L41.8 1595.84 C40.78
									 1595.84 39.81 1596.29 39.15 1597.07 L1.07 1642.08 C0.19 1643.11 0 1644.55 0.57 1645.77 C1.14
									 1647 2.36 1647.78 3.71 1647.78 L256.47 1647.78 C257.84 1647.78 259.09 1646.97 259.64 1645.71
									 C260.19 1644.45 259.95 1642.98 259.01 1641.97 Z" class="st23"/>
					</g>
					<g id="shape25-92" v:mID="25" v:groupContext="shape" transform="translate(93.314,-38.0873)">
						<title>Tabelle.25</title>
						<path d="M86.37 1645.27 L83.77 1641.81 C83.19 1641.23 81.99 1640.85 80.68 1640.85 L5.87 1640.85 C4.56 1640.85
									 3.36 1641.23 2.77 1641.81 L0.54 1645.27 C0 1645.81 0.06 1646.45 0.69 1646.96 C1.32 1647.46 2.43
									 1647.78 3.64 1647.78 L83.27 1647.78 C84.47 1647.78 85.59 1647.47 86.22 1646.96 C86.85 1646.45
									 86.91 1645.81 86.37 1645.27 Z" class="st17"/>
					</g>
					<g id="shape26-94" v:mID="26" v:groupContext="shape" transform="translate(37.8519,-51.9373)">
						<title>Tabelle.26</title>
						<path d="M193.37 1642.15 L179.53 1624.84 C178.87 1624.02 177.87 1623.54 176.82 1623.54 L17.55 1623.54 C16.5
									 1623.54 15.5 1624.02 14.84 1624.84 L0.99 1642.15 C0.16 1643.2 0 1644.62 0.57 1645.82 C1.16 1647.01
									 2.37 1647.78 3.7 1647.78 L190.67 1647.78 C192 1647.78 193.21 1647.01 193.79 1645.82 C194.36
									 1644.61 194.21 1643.19 193.37 1642.15 Z" class="st17"/>
					</g>
				</g>
				<g id="shape36-96" v:mID="36" v:groupContext="shape" transform="translate(67.9714,-132.627)">
					<title>Tabelle.36</title>
					<desc>enviroCar Website</desc>
					<v:textBlock v:margins="rect(4,4,4,4)" v:tabSpace="42.5197"/>
					<v:textRect cx="69.6292" cy="1622.91" width="139.26" height="49.7351"/>
					<rect x="0" y="1598.04" width="139.258" height="49.7351" class="st24"/>
					<text x="33.36" y="1617.51" class="st25" v:langID="1031"><v:paragraph v:horizAlign="1"/><v:tabList/>enviroCar <tspan
								x="38.66" dy="1.2em" class="st26">Website</tspan></text>				</g>
			</g>
			<g id="shape39-100" v:mID="39" v:groupContext="shape" v:layerMember="0"
					transform="translate(-82.2009,-65.6104) rotate(-26.4563)">
				<title>1D-Doppelpfeil.39</title>
				<v:userDefs>
					<v:ud v:nameU="visVersion" v:val="VT0(14):26"/>
				</v:userDefs>
				<path d="M12.59 1627.63 L12.59 1622.59 L0 1635.19 L12.59 1647.78 L12.59 1642.74 L158.54 1642.74 L158.54 1647.78 L171.13
							 1635.19 L158.54 1622.59 L158.54 1627.63 L12.59 1627.63 Z" class="st27"/>
			</g>
			<g id="shape40-102" v:mID="40" v:groupContext="shape" transform="translate(184.252,-565.219)">
				<title>Tabelle.40</title>
				<desc>Bluetooth connection</desc>
				<v:textBlock v:margins="rect(4,4,4,4)" v:tabSpace="42.5197"/>
				<v:textRect cx="113.386" cy="1611.5" width="226.78" height="72.5669"/>
				<rect x="0" y="1575.21" width="226.772" height="72.5669" class="st24"/>
				<text x="38.66" y="1600.7" class="st28" v:langID="1031"><v:paragraph v:horizAlign="1"/><v:tabList/>Bluetooth <tspan
							x="30.27" dy="1.2em" class="st26">connection</tspan></text>			</g>
			<g id="shape41-106" v:mID="41" v:groupContext="shape" transform="translate(623.622,-576.558)">
				<title>Tabelle.41</title>
				<desc>Data exchange</desc>
				<v:textBlock v:margins="rect(4,4,4,4)" v:tabSpace="42.5197"/>
				<v:textRect cx="188.504" cy="1598.41" width="377.01" height="98.7402"/>
				<rect x="0" y="1549.04" width="377.008" height="98.7402" class="st24"/>
				<text x="78.41" y="1609.21" class="st28" v:langID="1031"><v:paragraph v:horizAlign="1"/><v:tabList/>Data exchange</text>			</g>
			<g id="shape42-109" v:mID="42" v:groupContext="shape" transform="translate(646.299,-198.425)">
				<title>Tabelle.42</title>
				<desc>Data exchange</desc>
				<v:textBlock v:margins="rect(4,4,4,4)" v:tabSpace="42.5197"/>
				<v:textRect cx="194.173" cy="1596.92" width="388.35" height="101.71"/>
				<rect x="0" y="1546.07" width="388.346" height="101.71" class="st24"/>
				<text x="84.08" y="1607.72" class="st28" v:langID="1031"><v:paragraph v:horizAlign="1"/><v:tabList/>Data exchange</text>			</g>
			<g id="group47-112" transform="translate(461.364,-588.353)" v:mID="47" v:groupContext="group">
				<title>Device, Cell Phone</title>
				<g id="shape49-113" v:mID="49" v:groupContext="shape">
					<title>outline</title>
					<path d="M22.46 1647.78 C10.08 1647.78 0 1637.84 0 1625.61 L0 1420.96 C-0 1408.73 10.08 1398.79 22.46 1398.79
								 L132.24 1398.79 C144.48 1398.79 154.44 1408.73 154.44 1420.96 L154.44 1625.61 C154.44 1637.84 144.48
								 1647.78 132.24 1647.78 L22.46 1647.78 Z" class="st17"/>
				</g>
				<g id="shape50-115" v:mID="50" v:groupContext="shape" transform="translate(6.30359,-6.30359)">
					<title>Tabelle.50</title>
					<path d="M125.94 1411.39 L16.16 1411.39 C7.23 1411.39 -0 1418.5 0 1427.26 L0 1631.92 C0 1640.67 7.23 1647.78
								 16.16 1647.78 L125.94 1647.78 C134.86 1647.78 141.83 1640.67 141.83 1631.92 L141.83 1427.26 C141.83
								 1418.5 134.86 1411.39 125.94 1411.39 Z" class="st18"/>
				</g>
				<g id="group51-117" transform="translate(22.0626,-18.9108)" v:mID="51" v:groupContext="group">
					<title>rim</title>
					<g id="shape52-118" v:mID="52" v:groupContext="shape" transform="translate(0,-22.0626)">
						<title>Tabelle.52</title>
						<rect x="0" y="1461.82" width="110.313" height="185.956" class="st17"/>
					</g>
					<g id="shape53-120" v:mID="53" v:groupContext="shape" transform="translate(6.30359,0)">
						<title>Tabelle.53</title>
						<path d="M16.55 1635.17 L5.52 1635.17 C2.46 1635.17 0 1637.99 0 1641.48 C-0 1644.95 2.46 1647.78 5.52 1647.78
									 L16.55 1647.78 C19.59 1647.78 22.06 1644.95 22.06 1641.48 C22.06 1637.99 19.59 1635.17 16.55
									 1635.17 Z" class="st17"/>
					</g>
					<g id="shape54-122" v:mID="54" v:groupContext="shape" transform="translate(40.9733,0)">
						<title>Tabelle.54</title>
						<path d="M22.69 1635.17 L5.67 1635.17 C2.55 1635.17 0 1637.99 0 1641.48 C0 1644.95 2.55 1647.78 5.67 1647.78
									 L22.69 1647.78 C25.83 1647.78 28.37 1644.95 28.37 1641.48 C28.37 1637.99 25.83 1635.17 22.69
									 1635.17 Z" class="st17"/>
					</g>
					<g id="shape67-124" v:mID="67" v:groupContext="shape" transform="translate(81.9467,0)">
						<title>Tabelle.67</title>
						<path d="M16.55 1635.17 L5.52 1635.17 C2.46 1635.17 0 1637.99 0 1641.48 C-0 1644.95 2.46 1647.78 5.52 1647.78
									 L16.55 1647.78 C19.6 1647.78 22.06 1644.95 22.06 1641.48 C22.06 1637.99 19.6 1635.17 16.55 1635.17
									 Z" class="st17"/>
					</g>
				</g>
				<g id="shape68-126" v:mID="68" v:groupContext="shape" transform="translate(28.3662,-47.2769)">
					<title>Tabelle.68</title>
					<rect x="0" y="1474.43" width="97.7057" height="173.349" class="st29"/>
				</g>
			</g>
			<g id="shape69-128" v:mID="69" v:groupContext="shape" transform="translate(498.017,-712.849)">
				<title>Tabelle.69</title>
				<desc>enviroCar App</desc>
				<v:textBlock v:margins="rect(4,4,4,4)" v:tabSpace="42.5197"/>
				<v:textRect cx="40.5658" cy="1634.26" width="81.14" height="27.0438"/>
				<rect x="0" y="1620.74" width="81.1315" height="27.0438" class="st30"/>
				<text x="4.29" y="1628.86" class="st25" v:langID="1031"><v:paragraph v:horizAlign="1"/><v:tabList/>enviroCar <tspan
							x="25.45" dy="1.2em" class="st26">App</tspan></text>			</g>
			<g id="shape27-132" v:mID="27" v:groupContext="shape" v:layerMember="0"
					transform="translate(1173.08,-503.927) rotate(19.1081)">
				<title>1D-Doppelpfeil.27</title>
				<v:userDefs>
					<v:ud v:nameU="visVersion" v:val="VT0(14):26"/>
				</v:userDefs>
				<path d="M12.59 1627.63 L12.59 1622.59 L0 1635.19 L12.59 1647.78 L12.59 1642.74 L158.55 1642.74 L158.55 1647.78 L171.15
							 1635.19 L158.55 1622.59 L158.55 1627.63 L12.59 1627.63 Z" class="st27"/>
			</g>
		</g>
	</g>
</svg>
