<?xml version="1.0" encoding="UTF-8" standalone="no"?>
<!DOCTYPE svg PUBLIC "-//W3C//DTD SVG 1.0//EN" "http://www.w3.org/TR/2001/REC-SVG-20010904/DTD/svg10.dtd">
<!-- Generiert durch Microsoft Visio 11.0, SVG Export, v1.0 architecture_new3.svg Zeichenblatt-1 -->
<svg xmlns="http://www.w3.org/2000/svg" xmlns:xlink="http://www.w3.org/1999/xlink" xmlns:ev="http://www.w3.org/2001/xml-events"
		xmlns:v="http://schemas.microsoft.com/visio/2003/SVGExtensions/" width="15.3647in" height="11.6506in"
		viewBox="0 0 1106.26 838.845" xml:space="preserve" color-interpolation-filters="sRGB" class="st31">
	<v:documentProperties v:langID="1031" v:metric="true" v:viewMarkup="false"/>

	<style type="text/css">
	<![CDATA[
		.st1 {fill:#000000;fill-opacity:0;stroke:none;stroke-linecap:round;stroke-linejoin:round;stroke-width:0.75}
		.st2 {fill:#26577b;stroke:none;stroke-linecap:round;stroke-linejoin:round;stroke-width:0.75}
		.st3 {fill:#f7f3e8;stroke:none;stroke-linecap:round;stroke-linejoin:round;stroke-width:0.75}
		.st4 {fill:url(#grad25-12);stroke:#26577b;stroke-linecap:round;stroke-linejoin:round;stroke-width:0.347925}
		.st5 {fill:#6397be;stroke:none;stroke-linecap:round;stroke-linejoin:round;stroke-width:0.75}
		.st6 {fill:#4674a2}
		.st7 {stroke:none;stroke-linecap:round;stroke-linejoin:round;stroke-width:0.75}
		.st8 {fill:#9acae0;stroke:none;stroke-linecap:round;stroke-linejoin:round;stroke-width:0.75}
		.st9 {fill:url(#grad33-23)}
		.st10 {stroke:#4674a2;stroke-linecap:round;stroke-linejoin:round;stroke-width:0.347925}
		.st11 {fill:url(#grad25-12);stroke:#4674a2;stroke-linecap:butt;stroke-width:0.375825}
		.st12 {fill:#ffffff;stroke:#4674a2;stroke-linecap:butt;stroke-width:0.347925}
		.st13 {fill:url(#grad25-12);stroke:#4674a2;stroke-linecap:round;stroke-linejoin:round;stroke-width:0.375}
		.st14 {fill:url(#grad25-44);stroke:#4674a2;stroke-linecap:butt;stroke-width:0.347925}
		.st15 {fill:#4674a2;stroke:none;stroke-linecap:round;stroke-linejoin:round;stroke-width:0.75}
		.st16 {fill:none;stroke:#000000;stroke-linecap:round;stroke-linejoin:round;stroke-width:0.72}
		.st17 {fill:#ffffff;stroke:none;stroke-linecap:butt;stroke-width:0.75}
		.st18 {fill:#808080;stroke:none;stroke-linecap:butt;stroke-width:0.75}
		.st19 {fill:#4d80b8;stroke:none;stroke-linecap:butt;stroke-width:0.75}
		.st20 {fill:#0065a0}
		.st21 {stroke:#000000;stroke-linecap:round;stroke-linejoin:round;stroke-width:0.24}
		.st22 {fill:#ffffff;stroke:#0065a0;stroke-linecap:round;stroke-linejoin:round;stroke-width:0.24;visibility:hidden}
		.st23 {fill:#4d82b8;stroke:none;stroke-linecap:butt;stroke-width:0.75}
		.st24 {fill:none;stroke:none;stroke-linecap:round;stroke-linejoin:round;stroke-width:0.75}
		.st25 {fill:#0065a0;font-family:Calibri;font-size:1.5em;font-weight:bold}
		.st26 {font-size:1em}
		.st27 {fill:#0065a0;stroke:#000000;stroke-linecap:round;stroke-linejoin:round;stroke-width:0.24}
		.st28 {fill:#000000;font-family:Calibri;font-size:3em;font-weight:bold}
		.st29 {fill:#8cbf3f;stroke:none;stroke-linecap:butt;stroke-width:0.75}
		.st30 {fill:#8cbf3f;stroke:none;stroke-linecap:round;stroke-linejoin:round;stroke-width:0.75}
		.st31 {fill:none;fill-rule:evenodd;font-size:12px;overflow:visible;stroke-linecap:square;stroke-miterlimit:3}
	]]>
	</style>

	<defs id="Patterns_And_Gradients">
		<linearGradient id="grad25-12" v:fillPattern="25" v:foreground="#ffffff" v:background="#b7e4ee" x1="0" y1="0" x2="1" y2="0">
			<stop offset="0" style="stop-color:#ffffff;stop-opacity:1"/>
			<stop offset="1" style="stop-color:#b7e4ee;stop-opacity:1"/>
		</linearGradient>
		<pattern id="grad33-23" v:fillPattern="33" v:foreground="#b7e4ee" v:background="#4674a2" x="0" y="0" width="1" height="1"
				patternContentUnits="objectBoundingBox">
			<path d="M 0 1 L 0 0 L 1 0 z" style="fill:url(#grad30-24)"/>
			<path d="M 0 1 L 1 1 L 1 0 z" style="fill:url(#grad25-25)"/>
		</pattern>
		<linearGradient id="grad30-24" v:fillPattern="33" v:foreground="#b7e4ee" v:background="#4674a2" x1="0" y1="1" x2="0" y2="0">
			<stop offset="0" style="stop-color:#b7e4ee;stop-opacity:1"/>
			<stop offset="1" style="stop-color:#4674a2;stop-opacity:1"/>
		</linearGradient>
		<linearGradient id="grad25-25" v:fillPattern="33" v:foreground="#b7e4ee" v:background="#4674a2" x1="0" y1="0" x2="1" y2="0">
			<stop offset="0" style="stop-color:#b7e4ee;stop-opacity:1"/>
			<stop offset="1" style="stop-color:#4674a2;stop-opacity:1"/>
		</linearGradient>
		<linearGradient id="grad25-44" v:fillPattern="25" v:foreground="#b7e4ee" v:background="#7bb4d2" x1="0" y1="0" x2="1" y2="0">
			<stop offset="0" style="stop-color:#b7e4ee;stop-opacity:1"/>
			<stop offset="1" style="stop-color:#7bb4d2;stop-opacity:1"/>
		</linearGradient>
	</defs>
	<g v:mID="0" v:index="1" v:groupContext="foregroundPage">
		<title>Zeichenblatt-1</title>
		<v:pageProperties v:drawingScale="0.0393701" v:pageScale="0.0393701" v:drawingUnits="24" v:shadowOffsetX="8.50394"
				v:shadowOffsetY="-8.50394"/>
		<v:layer v:name="Verbinder" v:index="0"/>
		<g id="group28-1" transform="translate(0,-0.75)" v:mID="28" v:groupContext="group">
			<title>Tabelle.28</title>
			<g id="group1-2" transform="translate(0,-284.589)" v:mID="1" v:groupContext="group">
				<v:userDefs>
					<v:ud v:nameU="SkinColor" v:prompt="" v:val="VT5(#da8c36)"/>
					<v:ud v:nameU="visVersion" v:prompt="" v:val="VT0(14):26"/>
				</v:userDefs>
				<title>Fuhrpark</title>
				<g id="shape2-3" v:mID="2" v:groupContext="shape" transform="translate(83.4976,-20.7037)">
					<title>Tabelle.2</title>
					<path d="M279.66 697.37 A11.4701 11.4701 -180 0 0 277.93 689.12 A107.196 107.196 -180 0 0 224.8 654.32 A105.943
								 105.943 -180 0 0 192.28 659.2 A87.8323 87.8323 -180 0 0 154.45 653.1 A124.779 124.779 -180 0 0 98.81
								 681.2 A167.879 167.879 -180 0 0 69.08 725.64 A204.759 204.759 -180 0 0 12.29 759 L11.94 759.35 L10.52
								 760.98 L10.41 761.4 A21.035 21.035 -180 0 0 6.35 775.51 L0.42 783.22 L0 797.08 A49.984 49.984 -180
								 0 0 43.64 833.4 A75.5511 75.5511 -180 0 0 95.77 826.28 A13.6684 13.6684 -180 0 0 98.98 828.53 L113.78
								 836.9 L116.22 837.57 L116.71 837.84 A13.0065 13.0065 -180 0 0 122.36 838.84 A23.182 23.182 -180
								 0 0 140.98 822.65 A28.644 28.644 -180 0 0 142.17 805.26 L146.17 802.73 L227.79 755.25 L241.17 762.83
								 L244.41 763.91 A12.9548 12.9548 -180 0 0 249.75 764.75 A23.1973 23.1973 -180 0 0 268.37 748.57 A28.1557
								 28.1557 -180 0 0 269.2 729.96 A75.4066 75.4066 -180 0 0 283.01 715.32 A14.08 14.08 -180 0 0 282.18
								 700.16 L279.66 697.37 Z" class="st1"/>
				</g>
				<g id="shape3-5" v:mID="3" v:groupContext="shape" transform="translate(169.821,-17.1782)">
					<title>Tabelle.3</title>
					<path d="M155.82 711.41 L153.05 709.86 A20.8632 20.8632 -180 0 0 128.32 725.92 A22.2666 22.2666 -180 0 0 135.52
								 753.97 L148 761.02 L148.72 761.6 L150.14 762.4 L151.61 763.23 A27.5803 27.5803 -180 0 0 159.48 764.76
								 A21.9871 21.9871 -180 0 0 178.1 748.58 A27.7852 27.7852 -180 0 0 174.88 721.76 L172.38 719.27 L168.95
								 717.3 L155.82 711.41 ZM29.41 785.55 L26.64 784 A20.8597 20.8597 -180 0 0 1.91 800.06 A23.4356 23.4356
								 -180 0 0 8.71 828.54 L19.56 834.67 A9.65372 9.65372 0 0 1 23.51 836.91 L24.91 837.46 A22.9586 22.9586
								 -180 0 0 32.09 838.85 A21.1104 21.1104 -180 0 0 50.71 822.66 A29.2547 29.2547 -180 0 0 48.19 795.98
								 L45.69 793.5 L42.26 791.53 A13.5406 13.5406 -180 0 0 38.27 790.63 L29.41 785.55 Z" class="st2"/>
				</g>
				<g id="shape4-7" v:mID="4" v:groupContext="shape" transform="translate(193.802,-27.939)">
					<title>Tabelle.4</title>
					<path d="M18.37 815.41 L16.99 814.04 L15.1 812.96 A11.9071 11.9071 -180 0 0 1.08 822.13 A13.4165 13.4165 -180
								 0 0 3.95 837.37 L5.55 838.27 L8.82 838.84 A13.4277 13.4277 -180 0 0 19.61 829.48 A14.6579 14.6579
								 -180 0 0 18.37 815.41 ZM144.78 742.01 L143.41 740.65 L141.51 739.56 A11.9121 11.9121 -180 0 0 127.49
								 748.73 A13.435 13.435 -180 0 0 130.37 763.97 L131.96 764.88 L135.23 765.44 A13.4253 13.4253 -180
								 0 0 146.02 756.08 A14.6382 14.6382 -180 0 0 144.78 742.01 Z" class="st3"/>
				</g>
				<g id="shape5-9" v:mID="5" v:groupContext="shape" transform="translate(178.366,-142.554)">
					<title>Tabelle.5</title>
					<path d="M179.12 814.5 A115.58 115.58 -180 0 0 125.99 779.71 A101.689 101.689 -180 0 0 93.47 784.58 A100.293
								 100.293 -180 0 0 55.64 778.48 A122.324 122.324 -180 0 0 -0 806.59 A47.8855 47.8855 -180 0 0 54.66
								 838.84 L179.12 814.5 Z" class="st4"/>
				</g>
				<g id="shape6-13" v:mID="6" v:groupContext="shape" transform="translate(122.725,-30.3474)">
					<title>Tabelle.6</title>
					<path d="M231.08 696.53 A220.727 220.727 -180 0 0 201.9 705.24 A226.41 226.41 -180 0 0 167.69 699.61 A104.958
								 104.958 -180 0 0 111.51 727.06 A390.414 390.414 -180 0 0 80.01 770.1 A226.558 226.558 -180 0 0 0
								 805.3 A40.458 40.458 -180 0 0 34.82 838.85 L58.04 830.96 A28.3687 28.3687 0 0 1 75.61 805.41 A18.2965
								 18.2965 0 0 1 95.75 810.24 L185.41 758.38 A28.37 28.37 0 0 1 202.97 732.83 A18.3055 18.3055 0 0
								 1 223.13 737.66 L237.91 728.04 A52.6837 52.6837 -180 0 0 231.08 696.53 ZM86 817.65 L84.84 816.42
								 L83.23 815.44 A10.1176 10.1176 -180 0 0 71.31 823.71 A12.6228 12.6228 -180 0 0 73.75 837.44 L75.1
								 838.26 L77.89 838.77 A11.631 11.631 -180 0 0 87.06 830.33 A13.8979 13.8979 -180 0 0 86 817.65 ZM212.29
								 744.25 L211.05 743.02 L209.35 742.04 A10.7389 10.7389 -180 0 0 196.71 750.31 A12.1155 12.1155 -180
								 0 0 199.3 764.05 L200.73 764.86 L203.68 765.38 A12.1225 12.1225 -180 0 0 213.41 756.93 A13.2276
								 13.2276 -180 0 0 212.29 744.25 Z" class="st5"/>
				</g>
				<g id="shape7-15" v:mID="7" v:groupContext="shape" transform="translate(79.5519,-20.5313)">
					<title>Tabelle.7</title>
					<path d="M13.37 775.53 A43.0577 43.0577 -180 0 0 70.18 792.41 A48.8653 48.8653 0 0 1 90.95 823.64 L101.86 818.86
								 A10.2354 10.2354 0 0 1 100.63 827.1 A104.406 104.406 0 0 1 61.82 838.85 A56.0654 56.0654 0 0 1 0
								 800.44 L0.42 786.58 L13.37 775.53 ZM228.84 748.44 L138.17 800.66 A10.9677 10.9677 0 0 1 141.57 808.86
								 L227.62 758.63 A6.79553 6.79553 -180 0 0 228.84 748.44 ZM279.66 700.74 A13.74 13.74 0 0 1 283.01
								 718.68 A65.9809 65.9809 0 0 1 268.3 733.96 A26.8859 26.6978 -180 0 0 264.41 726.41 A64.3646 64.3646
								 -180 0 0 275.92 714.67 A21.4763 21.4763 0 0 1 279.66 700.74 Z" class="st6"/>
					<path d="M13.37 775.53 A43.0577 43.0577 -180 0 0 70.18 792.41 A48.8653 48.8653 0 0 1 90.95 823.64 L101.86 818.86
								 A10.2354 10.2354 0 0 1 100.63 827.1 A104.406 104.406 0 0 1 61.82 838.85 A56.0654 56.0654 0 0 1 0
								 800.44 L0.42 786.58M228.84 748.44 L138.17 800.66 A10.9677 10.9677 0 0 1 141.57 808.86 L227.62 758.63
								 A6.79553 6.79553 -180 0 0 228.84 748.44M279.66 700.74 A13.74 13.74 0 0 1 283.01 718.68 A65.9809
								 65.9809 0 0 1 268.3 733.96 A26.8859 26.6978 -180 0 0 264.41 726.41 A64.3646 64.3646 -180 0 0 275.92
								 714.67 A21.4763 21.4763 0 0 1 279.66 700.74" class="st7"/>
				</g>
				<g id="shape8-18" v:mID="8" v:groupContext="shape" transform="translate(79.9697,-35.1542)">
					<title>Tabelle.8</title>
					<path d="M79.56 816.71 A63.1809 63.1809 0 0 1 7.77 791.11 L0 801.2 A45.9812 45.9812 -180 0 0 57.67 835.13 A62.9037
								 62.9037 -180 0 0 79.56 816.71 Z" class="st8"/>
				</g>
				<g id="shape9-20" v:mID="9" v:groupContext="shape" transform="translate(83.9231,-42.5737)">
					<title>Tabelle.9</title>
					<path d="M55.33 833.74 A42.0938 42.0938 0 0 1 4.56 802.5 L55.33 833.74 Z" class="st9"/>
					<path d="M55.33 833.74 A42.0938 42.0938 0 0 1 4.56 802.5" class="st10"/>
				</g>
				<g id="shape10-27" v:mID="10" v:groupContext="shape" transform="translate(84.4582,-50.8914)">
					<title>Tabelle.10</title>
					<path d="M55.33 833.74 A42.0901 42.0901 0 0 1 4.56 802.5 L55.33 833.74 Z" class="st9"/>
					<path d="M55.33 833.74 A42.0901 42.0901 0 0 1 4.56 802.5" class="st10"/>
				</g>
				<g id="shape11-31" v:mID="11" v:groupContext="shape" transform="translate(118.185,-39.8925)">
					<title>Tabelle.11</title>
					<path d="M5.81 815.62 A156.373 156.373 0 0 1 29.24 813.19 A12.3783 12.3783 0 0 1 41.34 821.45 A41.0184 41.0184
								 0 0 1 2.28 830.5 A16.1218 16.1218 0 0 1 5.81 815.62 Z" class="st11"/>
				</g>
				<g id="shape12-34" v:mID="12" v:groupContext="shape" transform="translate(85.7163,-75.8103)">
					<title>Tabelle.12</title>
					<path d="M1.91 838.85 A12.4868 12.4868 -180 0 0 4.25 820.04 A17.2884 17.2884 -180 0 0 1.91 838.85 Z"
							class="st12"/>
				</g>
				<g id="shape13-36" v:mID="13" v:groupContext="shape" transform="translate(90.0758,-62.7246)">
					<title>Tabelle.13</title>
					<path d="M51.84 837.98 A44.0555 44.0555 0 0 1 0 806.54 A169.836 169.836 0 0 1 58.55 771.2 A54.259 54.259 -180
								 0 0 111.29 803.49 A300.66 300.66 0 0 1 51.84 837.98 Z" class="st13"/>
				</g>
				<g id="shape14-39" v:mID="14" v:groupContext="shape" transform="translate(238.279,-166.188)">
					<title>Tabelle.14</title>
					<path d="M33.39 809.34 A69.7381 69.7381 0 0 1 85.33 838.85 L53.63 831.42 A103.067 103.067 -180 0 0 0 802.8 A85.4205
								 85.4205 0 0 1 33.39 809.34 Z" class="st5"/>
				</g>
				<g id="shape15-41" v:mID="15" v:groupContext="shape" transform="translate(148.627,-97.3555)">
					<title>Tabelle.15</title>
					<path d="M29.74 761.39 A38.8271 38.8271 -180 0 0 86.29 793.39 A400.446 400.446 -180 0 0 56.39 835.36 A36.8529
								 36.8529 0 0 1 10.95 824.7 A37.648 37.648 0 0 1 0 805.83 A179.526 179.526 0 0 1 28.3 762.71 L29.74
								 761.39 Z" class="st14"/>
				</g>
				<g id="shape16-45" v:mID="16" v:groupContext="shape" transform="translate(215.079,-102.869)">
					<title>Tabelle.16</title>
					<path d="M0 838.85 A105.313 105.313 0 0 1 52.49 785.26 A71.3263 71.3263 0 0 1 88.18 790.69 A754.79 754.79 0 0
								 1 -0 838.85 Z" class="st15"/>
				</g>
				<g id="shape17-47" v:mID="17" v:groupContext="shape" transform="translate(208.563,-92.2057)">
					<title>Tabelle.17</title>
					<path d="M10.85 821.5 A20.8194 20.8194 0 0 1 29.97 826.42 A24.8325 24.8325 0 0 1 3.78 835.56 A8.66256 8.66256
								 0 0 1 10.85 821.5 Z" class="st8"/>
				</g>
				<g id="shape18-49" v:mID="18" v:groupContext="shape" transform="translate(79.5519,-17.1685)">
					<title>Tabelle.18</title>
					<path d="M279.66 697.37 A12.3272 12.3272 -180 0 0 277.93 689.12 A99.314 99.314 -180 0 0 224.8 654.32 A99.7477
								 99.7477 -180 0 0 192.28 659.2 A160.584 160.584 -180 0 0 154.45 653.1 A117.54 117.54 -180 0 0 98.81
								 681.2 A156.97 156.97 -180 0 0 69.08 725.64 A242.645 242.645 -180 0 0 12.29 759 L11.94 759.35 L10.52
								 760.98 L10.41 761.4 A21.4515 21.4515 -180 0 0 6.35 775.51 L0.42 783.22 L0 797.08 A51.4472 51.4472
								 -180 0 0 43.64 833.4 A74.1825 74.1825 -180 0 0 95.77 826.28 A13.6697 13.6697 -180 0 0 98.98 828.53
								 L113.78 836.9 L116.22 837.57 L116.71 837.84 A13.0241 13.0241 -180 0 0 122.36 838.84 A23.4632 23.4632
								 -180 0 0 140.98 822.65 A28.7106 28.7106 -180 0 0 142.17 805.26 L146.17 802.73 L227.79 755.25 L241.17
								 762.83 L244.41 763.91 A12.9534 12.9534 -180 0 0 249.75 764.75 A23.4775 23.4775 -180 0 0 268.37 748.57
								 A28.2428 28.2428 -180 0 0 269.2 729.96 A69.9362 69.9362 -180 0 0 283.01 715.32 A14.0877 14.0877
								 -180 0 0 282.18 700.16 L279.66 697.37 Z" class="st16"/>
				</g>
			</g>
			<g id="group55-51" transform="translate(751.181,-285.729)" v:mID="55" v:groupContext="group">
				<title>Cloud Service Request</title>
				<g id="group56-52" transform="translate(0,-84.1493)" v:mID="56" v:groupContext="group">
					<title>base</title>
					<g id="shape57-53" v:mID="57" v:groupContext="shape">
						<title>Tabelle.57</title>
						<path d="M60.45 838.85 C27.12 838.85 0 810.21 0 775.01 C-0 740.2 26.49 711.81 59.29 711.16 C69.72 698.02
									 84.97 690.36 101.46 690.28 C107.43 656.62 135.38 631.06 168.87 631.06 C191 631.06 211.59 642.65
									 224.24 661.47 C230.8 659.21 237.68 658.05 244.62 658.05 C281.3 658.05 311.14 689.62 311.14 728.42
									 C311.14 729.11 311.13 729.81 311.11 730.5 C326.78 741.25 336.5 759.66 336.5 779.75 C336.5 806.82
									 319.08 830.41 294.15 837.12 L293.72 837.24 L285.59 838.85 L60.45 838.85 Z" class="st17"/>
					</g>
					<g id="group58-55" transform="translate(8.85782,-8.85782)" v:mID="58" v:groupContext="group">
						<title>Tabelle.58</title>
						<g id="shape59-56" v:mID="59" v:groupContext="shape" transform="translate(4.42891,-4.42891)">
							<title>Tabelle.59</title>
							<path d="M271 838.85 L47.17 838.85 C21.16 838.85 0 816.17 0 788.29 C-0 760.4 21.16 737.72 47.17 737.72
										 C48.97 737.72 50.78 737.84 52.71 738.11 C60.46 724.92 73.88 716.85 88.44 716.85 C92.44 716.85
										 96.42 717.49 100.33 718.77 C100.3 718.18 100.29 717.59 100.29 716.99 C100.29 684.26 125.09
										 657.63 155.58 657.63 C177 657.63 196.34 671.23 205.29 692.01 C213.24 687.16 222.15 684.62
										 231.33 684.62 C260.69 684.62 284.57 710.23 284.57 741.71 C284.57 744.79 284.31 747.88 283.8
										 751.07 C299.58 758.2 309.92 774.6 309.92 793.04 C309.92 814.35 296.32 832.49 277.41 837.58
										 L271 838.85 Z" class="st17"/>
						</g>
						<g id="shape60-58" v:mID="60" v:groupContext="shape">
							<title>Tabelle.60</title>
							<path d="M275.86 838.85 L51.6 838.85 C23.15 838.85 0 814.18 0 783.86 C0 752.38 24.91 726.76 54.85 728.98
										 C63.63 715.79 77.65 707.99 92.87 707.99 C95.39 707.99 97.9 708.22 100.4 708.67 C102.29 675.3
										 128.31 648.77 160.01 648.77 C181.46 648.77 201.27 661.44 211.7 681.43 C219.22 677.71 227.45
										 675.76 235.76 675.76 C267.56 675.76 293.42 703.35 293.42 737.27 C293.42 739.54 293.3 741.79
										 293.05 744.08 C308.79 752.61 318.78 769.72 318.78 788.6 C318.78 811.68 304.07 831.75 283
										 837.42 L275.86 838.85 ZM51.6 737.72 C28.03 737.72 8.86 758.42 8.86 783.86 C8.86 809.3 28.03
										 829.99 51.6 829.99 L274.99 829.99 L280.98 828.8 C297.9 824.23 309.92 807.67 309.92 788.6
										 C309.92 772.03 300.69 757.14 286.4 750.67 L283.32 749.28 L283.86 745.94 C284.33 742.98 284.56
										 740.14 284.56 737.28 C284.56 708.24 262.67 684.62 235.76 684.62 C227.46 684.62 219.25 686.95
										 212.02 691.36 L207.67 694.02 L205.65 689.33 C197.36 670.07 179.45 657.63 160.01 657.63 C131.96
										 657.63 109.15 682.27 109.15 712.56 C109.15 713.09 109.16 713.62 109.18 714.14 L109.46 720.53
										 L103.38 718.55 C99.93 717.42 96.39 716.85 92.87 716.85 C79.9 716.85 67.97 723.98 60.96 735.92
										 L59.46 738.47 L56.53 738.07 C54.82 737.83 53.2 737.72 51.6 737.72 Z" class="st18"/>
						</g>
					</g>
				</g>
				<g id="group61-60" transform="translate(159.459,0)" v:mID="61" v:groupContext="group">
					<title>overlay_copy</title>
					<g id="shape62-61" v:mID="62" v:groupContext="shape">
						<title>Tabelle.62</title>
						<path d="M73.51 838.85 L70.38 813.79 C68.68 813.16 67.01 812.47 65.38 811.73 L45.45 827.23 L11.62 793.39
									 L27.11 773.47 C26.37 771.84 25.69 770.17 25.05 768.47 L0 765.33 L0 717.48 L25.05 714.35 C25.69
									 712.65 26.37 710.98 27.11 709.35 L11.62 689.43 L45.45 655.6 L65.38 671.09 C67.01 670.35 68.68
									 669.66 70.38 669.03 L73.51 643.97 L121.37 643.97 L124.5 669.03 C126.2 669.66 127.87 670.35 129.5
									 671.09 L149.42 655.6 L183.26 689.43 L167.76 709.35 C168.51 710.98 169.19 712.65 169.82 714.35
									 L194.87 717.48 L194.87 765.34 L169.82 768.47 C169.18 770.17 168.5 771.84 167.76 773.47 L183.26
									 793.4 L149.41 827.23 L129.5 811.74 C127.86 812.48 126.19 813.16 124.49 813.8 L121.36 838.85
									 L73.51 838.85 Z" class="st17"/>
					</g>
					<g id="shape63-63" v:mID="63" v:groupContext="shape" transform="translate(8.85782,-8.85782)">
						<title>Tabelle.63</title>
						<path d="M177.16 766.37 L177.16 734.16 L154.3 731.3 C152.88 726.34 150.93 721.61 148.48 717.18 L162.6 699.02
									 L139.82 676.25 L121.67 690.37 C117.23 687.91 112.5 685.97 107.54 684.55 L104.69 661.69 L72.47
									 661.69 L69.62 684.54 C64.66 685.97 59.92 687.91 55.49 690.36 L37.33 676.24 L14.55 699.02 L28.67
									 717.17 C26.22 721.61 24.28 726.34 22.85 731.3 L0 734.16 L0 766.37 L22.85 769.23 C24.28 774.19
									 26.22 778.92 28.67 783.36 L14.55 801.51 L37.33 824.29 L55.49 810.17 C59.92 812.63 64.66 814.57
									 69.62 815.99 L72.47 838.85 L104.68 838.85 L107.54 815.99 C112.5 814.57 117.23 812.62 121.67
									 810.17 L139.82 824.29 L162.6 801.51 L148.48 783.36 C150.94 778.92 152.88 774.19 154.3 769.23
									 L177.16 766.37 ZM122.8 750.27 C122.8 769.17 107.48 784.49 88.58 784.49 C69.68 784.49 54.35 769.17
									 54.35 750.27 C54.35 731.36 69.68 716.04 88.58 716.04 C107.48 716.04 122.8 731.36 122.8 750.27
									 Z" class="st18"/>
					</g>
				</g>
				<g id="group64-65" transform="translate(17.7334,-48.7623)" v:mID="64" v:groupContext="group">
					<title>Tabelle.64</title>
					<g id="shape65-66" v:mID="65" v:groupContext="shape">
						<title>Tabelle.65</title>
						<path d="M0 768.3 L73.07 768.3 L45.96 741.45 L108.8 741.45 L150.58 784.29 L150.58 796.47 L108.77 838.85 L45.95
									 838.85 L73.07 812.01 L0 812.01 L0 768.3 Z" class="st17"/>
					</g>
					<g id="shape66-68" v:mID="66" v:groupContext="shape" transform="translate(8.85782,-8.85782)">
						<title>Tabelle.66</title>
						<path d="M0 812.01 L85.75 812.01 L58.63 838.85 L96.21 838.85 L132.87 801.7 L132.87 796.75 L96.21 759.17 L58.63
									 759.17 L85.75 786.02 L0 786.02 L0 812.01 Z" class="st19"/>
					</g>
				</g>
				<g id="shape55-70" v:mID="55" v:groupContext="groupContent">
					<v:textBlock v:margins="rect(0,0,0,0)"/>
				</g>
			</g>
			<g id="group43-71" transform="translate(-256.754,-221.625) rotate(-46.6603)" v:mID="43" v:groupContext="group">
				<v:userDefs>
					<v:ud v:nameU="visVersion" v:val="VT0(14):26"/>
				</v:userDefs>
				<title>1D-Pfeil</title>
				<g id="shape44-72" v:mID="44" v:groupContext="shape">
					<title>Tabelle.44</title>
					<path d="M0 829.79 L129.3 829.79 L129.3 838.85 L138.36 820.73 L129.3 802.61 L129.3 811.67 L0 811.67 L0 829.79
								 Z" class="st20"/>
					<path d="M0 829.79 L129.3 829.79 L129.3 838.85 L138.36 820.73 L129.3 802.61 L129.3 811.67 L0 811.67"
							class="st7"/>
				</g>
				<g id="shape45-75" v:mID="45" v:groupContext="shape">
					<title>Tabelle.45</title>
					<path d="M0 829.79 L129.3 829.79 L129.3 838.85 L138.36 820.73 L129.3 802.61 L129.3 811.67 L0 811.67 L0 829.79"
							class="st21"/>
				</g>
				<g id="shape46-78" v:mID="46" v:groupContext="shape" transform="translate(-1.7741,-9.21296)">
					<title>Tabelle.46</title>
					<rect x="0" y="821.033" width="0.780974" height="17.8123" class="st22"/>
				</g>
			</g>
			<g id="group37-80" transform="translate(430.157,0)" v:mID="37" v:groupContext="group">
				<title>Tabelle.37</title>
				<g id="group19-81" v:mID="19" v:groupContext="group">
					<title>Laptop</title>
					<g id="shape20-82" v:mID="20" v:groupContext="shape">
						<title>Tabelle.20</title>
						<path d="M273.54 804.21 C273.54 799.71 271.78 795.3 268.46 791.98 L230.78 754.3 C235.48 752.13 238.78 747.4
									 238.78 741.9 L238.78 627.48 C238.78 619.93 232.62 613.78 225.05 613.78 L48.47 613.78 C40.91
									 613.78 34.75 619.93 34.75 627.48 L34.75 741.9 C34.75 746.55 37.09 750.65 40.66 753.12 C40.14
									 753.57 39.59 753.98 39.13 754.49 L4.51 792.58 C1.55 795.82 0 799.99 0 804.22 C0 806.59 0 823.26
									 0 823.26 C0 831.85 6.99 838.85 15.58 838.85 L257.95 838.85 C266.54 838.85 273.53 831.85 273.53
									 823.26 C273.53 823.26 273.54 806.44 273.54 804.21 Z" class="st17"/>
					</g>
					<g id="shape21-84" v:mID="21" v:groupContext="shape" transform="translate(6.92497,-6.92497)">
						<title>Tabelle.21</title>
						<path d="M259.69 830.19 C259.69 834.97 255.81 838.85 251.03 838.85 L8.66 838.85 C3.88 838.85 0 834.97 0 830.19
									 C0 825.41 0 821.53 0 821.53 L259.69 821.53 C259.69 821.53 259.69 825.41 259.69 830.19 Z"
								class="st23"/>
					</g>
					<g id="shape22-86" v:mID="22" v:groupContext="shape" transform="translate(41.6745,-90.1804)">
						<title>Tabelle.22</title>
						<path d="M183.39 710.89 L6.8 710.89 C3.04 710.89 0 713.92 0 717.66 L0 832.08 C0 835.81 3.04 838.85 6.8 838.85
									 L183.39 838.85 C187.14 838.85 190.19 835.81 190.19 832.08 L190.19 717.66 C190.19 713.92 187.14
									 710.89 183.39 710.89 Z" class="st23"/>
					</g>
					<g id="shape23-88" v:mID="23" v:groupContext="shape" transform="translate(55.3998,-103.875)">
						<title>Tabelle.23</title>
						<rect x="0" y="738.433" width="162.737" height="100.412" class="st17"/>
					</g>
					<g id="shape24-90" v:mID="24" v:groupContext="shape" transform="translate(6.67914,-31.1624)">
						<title>Tabelle.24</title>
						<path d="M259.01 833.03 L217.46 788.02 C216.81 787.31 215.89 786.91 214.92 786.91 L41.8 786.91 C40.78 786.91
									 39.81 787.36 39.15 788.13 L1.07 833.15 C0.19 834.17 0 835.61 0.57 836.84 C1.14 838.06 2.36 838.85
									 3.71 838.85 L256.47 838.85 C257.84 838.85 259.09 838.03 259.64 836.77 C260.19 835.51 259.95
									 834.04 259.01 833.03 Z" class="st23"/>
					</g>
					<g id="shape25-92" v:mID="25" v:groupContext="shape" transform="translate(93.314,-38.0873)">
						<title>Tabelle.25</title>
						<path d="M86.37 836.34 L83.77 832.88 C83.19 832.29 81.99 831.92 80.68 831.92 L5.87 831.92 C4.56 831.92 3.36
									 832.29 2.77 832.88 L0.54 836.34 C0 836.87 0.06 837.51 0.69 838.02 C1.32 838.53 2.43 838.85 3.64
									 838.85 L83.27 838.85 C84.47 838.85 85.59 838.53 86.22 838.02 C86.85 837.52 86.91 836.88 86.37
									 836.34 Z" class="st17"/>
					</g>
					<g id="shape26-94" v:mID="26" v:groupContext="shape" transform="translate(37.8519,-51.9373)">
						<title>Tabelle.26</title>
						<path d="M193.37 833.22 L179.53 815.91 C178.87 815.09 177.87 814.61 176.82 814.61 L17.55 814.61 C16.5 814.61
									 15.5 815.09 14.84 815.91 L0.99 833.22 C0.16 834.26 0 835.68 0.57 836.89 C1.16 838.08 2.37 838.85
									 3.7 838.85 L190.67 838.84 C192 838.84 193.21 838.08 193.79 836.88 C194.36 835.68 194.21 834.26
									 193.37 833.22 Z" class="st17"/>
					</g>
				</g>
				<g id="shape36-96" v:mID="36" v:groupContext="shape" transform="translate(67.9714,-132.627)">
					<title>Tabelle.36</title>
					<desc>enviroCar Website</desc>
					<v:textBlock v:margins="rect(4,4,4,4)" v:tabSpace="42.5197"/>
					<v:textRect cx="69.6292" cy="813.977" width="139.26" height="49.7351"/>
					<rect x="0" y="789.11" width="139.258" height="49.7351" class="st24"/>
					<text x="33.36" y="808.58" class="st25" v:langID="1031"><v:paragraph v:horizAlign="1"/><v:tabList/>enviroCar <tspan
								x="38.66" dy="1.2em" class="st26">Website</tspan></text>				</g>
			</g>
			<g id="shape39-100" v:mID="39" v:groupContext="shape" v:layerMember="0"
					transform="translate(278.191,-150.326) rotate(-26.4563)">
				<title>1D-Doppelpfeil.39</title>
				<v:userDefs>
					<v:ud v:nameU="visVersion" v:val="VT0(14):26"/>
				</v:userDefs>
				<path d="M12.59 818.7 L12.59 813.66 L0 826.25 L12.59 838.85 L12.59 833.81 L158.54 833.81 L158.54 838.85 L171.13 826.25
							 L158.54 813.66 L158.54 818.7 L12.59 818.7 Z" class="st27"/>
			</g>
			<g id="shape40-102" v:mID="40" v:groupContext="shape" transform="translate(184.252,-565.219)">
				<title>Tabelle.40</title>
				<desc>Bluetooth connection</desc>
				<v:textBlock v:margins="rect(4,4,4,4)" v:tabSpace="42.5197"/>
				<v:textRect cx="113.386" cy="802.562" width="226.78" height="72.5669"/>
				<rect x="0" y="766.278" width="226.772" height="72.5669" class="st24"/>
				<text x="38.66" y="791.76" class="st28" v:langID="1031"><v:paragraph v:horizAlign="1"/><v:tabList/>Bluetooth <tspan
							x="30.27" dy="1.2em" class="st26">connection</tspan></text>			</g>
			<g id="shape41-106" v:mID="41" v:groupContext="shape" transform="translate(623.622,-576.558)">
				<title>Tabelle.41</title>
				<desc>Data exchange</desc>
				<v:textBlock v:margins="rect(4,4,4,4)" v:tabSpace="42.5197"/>
				<v:textRect cx="188.504" cy="789.475" width="377.01" height="98.7402"/>
				<rect x="0" y="740.105" width="377.008" height="98.7402" class="st24"/>
				<text x="78.41" y="800.28" class="st28" v:langID="1031"><v:paragraph v:horizAlign="1"/><v:tabList/>Data exchange</text>			</g>
			<g id="shape42-109" v:mID="42" v:groupContext="shape" transform="translate(646.299,-198.425)">
				<title>Tabelle.42</title>
				<desc>Data exchange</desc>
				<v:textBlock v:margins="rect(4,4,4,4)" v:tabSpace="42.5197"/>
				<v:textRect cx="194.173" cy="787.99" width="388.35" height="101.71"/>
				<rect x="0" y="737.135" width="388.346" height="101.71" class="st24"/>
				<text x="84.08" y="798.79" class="st28" v:langID="1031"><v:paragraph v:horizAlign="1"/><v:tabList/>Data exchange</text>			</g>
			<g id="group70-112" transform="translate(461.364,-588.353)" v:mID="70" v:groupContext="group">
				<title>Tabelle.70</title>
				<g id="group47-113" v:mID="47" v:groupContext="group">
					<title>Device, Cell Phone</title>
					<g id="shape49-114" v:mID="49" v:groupContext="shape">
						<title>outline</title>
						<path d="M22.46 838.85 C10.08 838.85 0 828.9 0 816.68 L0 612.02 C-0 599.8 10.08 589.85 22.46 589.85 L132.24
									 589.85 C144.48 589.85 154.44 599.8 154.44 612.02 L154.44 816.68 C154.44 828.9 144.48 838.85
									 132.24 838.85 L22.46 838.85 Z" class="st17"/>
					</g>
					<g id="shape50-116" v:mID="50" v:groupContext="shape" transform="translate(6.30359,-6.30359)">
						<title>Tabelle.50</title>
						<path d="M125.94 602.46 L16.16 602.46 C7.23 602.46 -0 609.56 0 618.33 L0 822.98 C0 831.74 7.23 838.85 16.16
									 838.85 L125.94 838.85 C134.86 838.85 141.83 831.74 141.83 822.98 L141.83 618.33 C141.83 609.56
									 134.86 602.46 125.94 602.46 Z" class="st18"/>
					</g>
					<g id="group51-118" transform="translate(22.0626,-18.9108)" v:mID="51" v:groupContext="group">
						<title>rim</title>
						<g id="shape52-119" v:mID="52" v:groupContext="shape" transform="translate(0,-22.0626)">
							<title>Tabelle.52</title>
							<rect x="0" y="652.889" width="110.313" height="185.956" class="st17"/>
						</g>
						<g id="shape53-121" v:mID="53" v:groupContext="shape" transform="translate(6.30359,1.13687E-013)">
							<title>Tabelle.53</title>
							<path d="M16.55 826.24 L5.52 826.24 C2.46 826.24 0 829.06 0 832.54 C-0 836.01 2.46 838.85 5.52 838.85
										 L16.55 838.85 C19.59 838.85 22.06 836.01 22.06 832.54 C22.06 829.06 19.59 826.24 16.55 826.24
										 Z" class="st17"/>
						</g>
						<g id="shape54-123" v:mID="54" v:groupContext="shape" transform="translate(40.9733,1.13687E-013)">
							<title>Tabelle.54</title>
							<path d="M22.69 826.24 L5.67 826.24 C2.55 826.24 0 829.06 0 832.54 C0 836.01 2.55 838.85 5.67 838.85
										 L22.69 838.85 C25.83 838.85 28.37 836.01 28.37 832.54 C28.37 829.06 25.83 826.24 22.69 826.24
										 Z" class="st17"/>
						</g>
						<g id="shape67-125" v:mID="67" v:groupContext="shape" transform="translate(81.9467,1.13687E-013)">
							<title>Tabelle.67</title>
							<path d="M16.55 826.24 L5.52 826.24 C2.46 826.24 0 829.06 0 832.54 C-0 836.01 2.46 838.85 5.52 838.85
										 L16.55 838.85 C19.6 838.85 22.06 836.01 22.06 832.54 C22.06 829.06 19.6 826.24 16.55 826.24
										 Z" class="st17"/>
						</g>
					</g>
					<g id="shape68-127" v:mID="68" v:groupContext="shape" transform="translate(28.3662,-47.2769)">
						<title>Tabelle.68</title>
						<rect x="0" y="665.496" width="97.7057" height="173.349" class="st29"/>
					</g>
				</g>
				<g id="shape69-129" v:mID="69" v:groupContext="shape" transform="translate(36.6532,-124.496)">
					<title>Tabelle.69</title>
					<desc>enviroCar App</desc>
					<v:textBlock v:margins="rect(4,4,4,4)" v:tabSpace="42.5197"/>
					<v:textRect cx="40.5658" cy="825.323" width="81.14" height="27.0438"/>
					<rect x="0" y="811.801" width="81.1315" height="27.0438" class="st30"/>
					<text x="4.29" y="819.92" class="st25" v:langID="1031"><v:paragraph v:horizAlign="1"/><v:tabList/>enviroCar <tspan
								x="25.45" dy="1.2em" class="st26">App</tspan></text>				</g>
			</g>
			<g id="shape27-133" v:mID="27" v:groupContext="shape" v:layerMember="0"
					transform="translate(908.27,-548.497) rotate(19.1081)">
				<title>1D-Doppelpfeil.27</title>
				<v:userDefs>
					<v:ud v:nameU="visVersion" v:val="VT0(14):26"/>
				</v:userDefs>
				<path d="M12.59 818.7 L12.59 813.66 L0 826.25 L12.59 838.85 L12.59 833.81 L158.55 833.81 L158.55 838.85 L171.15 826.25
							 L158.55 813.66 L158.55 818.7 L12.59 818.7 Z" class="st27"/>
			</g>
		</g>
	</g>
</svg>
