<?xml version="1.0" encoding="UTF-8" standalone="no"?>
<!-- Generator: Adobe Illustrator 15.1.0, SVG Export Plug-In . SVG Version: 6.00 Build 0)  -->

<svg
   xmlns:dc="http://purl.org/dc/elements/1.1/"
   xmlns:cc="http://creativecommons.org/ns#"
   xmlns:rdf="http://www.w3.org/1999/02/22-rdf-syntax-ns#"
   xmlns:svg="http://www.w3.org/2000/svg"
   xmlns="http://www.w3.org/2000/svg"
   xmlns:sodipodi="http://sodipodi.sourceforge.net/DTD/sodipodi-0.dtd"
   xmlns:inkscape="http://www.inkscape.org/namespaces/inkscape"
   version="1.1"
   id="Ebene_1"
   x="0px"
   y="0px"
   width="724.92999"
   height="220.01003"
   viewBox="0 0 724.92998 220.01002"
   enable-background="new 0 0 841.89 595.28"
   xml:space="preserve"
   inkscape:version="0.48.4 r9939"
   sodipodi:docname="enviroCar_logo_13-06-08.svg"
   inkscape:export-filename="/home/dustin/car.io-www/assets/enviroCar_logo_13-06-08.png"
   inkscape:export-xdpi="153.21001"
   inkscape:export-ydpi="153.21001"><metadata
     id="metadata35"><rdf:RDF><cc:Work
         rdf:about=""><dc:format>image/svg+xml</dc:format><dc:type
           rdf:resource="http://purl.org/dc/dcmitype/StillImage" /><dc:title></dc:title></cc:Work></rdf:RDF></metadata><defs
     id="defs33" /><sodipodi:namedview
     pagecolor="#ffffff"
     bordercolor="#666666"
     borderopacity="1"
     objecttolerance="10"
     gridtolerance="10"
     guidetolerance="10"
     inkscape:pageopacity="0"
     inkscape:pageshadow="2"
     inkscape:window-width="1440"
     inkscape:window-height="853"
     id="namedview31"
     showgrid="false"
     showguides="true"
     inkscape:guide-bbox="true"
     inkscape:zoom="0.79290414"
     inkscape:cx="401.84881"
     inkscape:cy="103.01809"
     inkscape:window-x="-2"
     inkscape:window-y="-3"
     inkscape:window-maximized="1"
     inkscape:current-layer="Ebene_1"
     fit-margin-top="10"
     fit-margin-left="10"
     fit-margin-right="10"
     fit-margin-bottom="10"><sodipodi:guide
       orientation="0,1"
       position="139.94964,115.43756"
       id="guide3012" /></sodipodi:namedview><path
     d="m 243.79995,101.21239 c -0.732,-1.331 -1.015,-2.916 -0.687,-4.511 1.986,-9.71 6.422,-18.784 12.783,-26.261 2.358,-2.766 6.514,-3.096 9.268,-0.741 2.752,2.352 3.115,6.5 0.75,9.279 -4.947,5.781 -8.369,12.835 -9.919,20.372 -0.729,3.554 -4.212,5.846 -7.768,5.114 -1.961,-0.412 -3.528,-1.64 -4.427,-3.252 z"
     id="path3"
     inkscape:connector-curvature="0"
     style="fill:#1a80c1" /><path
     d="m 211.74495,103.33566 c -0.619,-1.106 -0.915,-2.4 -0.805,-3.752 2.024,-23.025 12.622,-44.098 29.835,-59.354 2.716,-2.41 6.87,-2.156 9.283,0.556 2.347,2.647 2.166,6.886 -0.557,9.292 -14.682,13.013 -23.727,31.004 -25.451,50.651 -0.326,3.623 -3.504,6.295 -7.123,5.983 -2.267,-0.206 -4.157,-1.521 -5.182,-3.376 z"
     id="path5"
     inkscape:connector-curvature="0"
     style="fill:#72b471" /><path
     d="m 179.12,105.30902 c -0.572,-1.032 -0.873,-2.235 -0.81,-3.506 1.792,-35.687 18.975,-68.643 47.154,-90.429 2.871,-2.218 6.998,-1.698 9.21,1.179 2.203,2.888 1.703,7.009 -1.183,9.221 -25.118,19.43 -40.449,48.843 -42.051,80.678 -0.173,3.629 -3.268,6.424 -6.888,6.233 -2.352,-0.109 -4.365,-1.454 -5.432,-3.376 z"
     id="path7"
     inkscape:connector-curvature="0"
     style="fill:#8ebd40" /><path
     d="m 72.179,189.96602 c 1.102,1.108 1.64,2.35 1.567,3.712 -0.059,1.359 -0.587,2.661 -1.567,3.901 -2.487,3.089 -6.127,5.936 -10.953,8.531 -4.822,2.601 -10.585,3.896 -17.266,3.896 -5.192,0 -9.857,-0.83 -14.007,-2.51 -4.151,-1.665 -7.708,-3.983 -10.678,-6.952 -2.966,-2.967 -5.252,-6.436 -6.856,-10.396 -1.616,-3.959 -2.4190002,-8.165 -2.4190002,-12.618 v -21.899 c 0,-4.451 0.7080002,-8.69 2.1310002,-12.715 1.429,-4.022 3.534,-7.515 6.312,-10.484 2.775,-2.966 6.188,-5.32 10.206,-7.058 4.017,-1.729 8.635,-2.598 13.831,-2.598 5.195,0 9.826,0.869 13.923,2.598 4.081,1.737 7.576,4.092 10.479,7.058 2.915,2.971 5.141,6.462 6.683,10.484 1.547,4.023 2.322,8.264 2.322,12.715 v 11.131 c 0,1.734 -0.496,3.098 -1.483,4.085 -1.002,0.989 -2.352,1.482 -4.089,1.482 H 28.561 c -1.246,0 -1.86,0.621 -1.86,1.86 v 3.341 c 0,4.708 1.395,8.659 4.182,11.877 2.782,3.219 7.141,4.822 13.079,4.822 4.705,0 8.346,-0.835 10.955,-2.498 2.589,-1.676 4.572,-3.254 5.938,-4.737 1.367,-1.361 2.723,-2.011 4.087,-1.941 1.352,0.057 2.589,0.642 3.708,1.756 l 3.529,3.157 z m -13,-34.335 c 0,-4.706 -1.292,-8.728 -3.902,-12.063 -2.589,-3.341 -6.856,-5.011 -12.796,-5.011 -5.818,0 -9.898,1.67 -12.246,5.011 -2.358,3.337 -3.534,7.357 -3.534,12.063 v 0.924 c 0,1.239 0.614,1.859 1.86,1.859 h 28.763 c 1.233,0 1.855,-0.621 1.855,-1.859 v -0.924 z"
     id="path9"
     inkscape:connector-curvature="0"
     style="fill:#1a80c1" /><path
     d="m 153.832,208.15702 c -1.732,0 -3.098,-0.493 -4.081,-1.489 -0.994,-0.984 -1.482,-2.344 -1.482,-4.08 v -46.4 c 0,-4.696 -1.462,-8.815 -4.369,-12.343 -2.898,-3.527 -7.331,-5.286 -13.268,-5.286 -5.94,0 -10.363,1.759 -13.263,5.286 -2.919,3.526 -4.369,7.646 -4.369,12.343 v 46.4 c 0,1.736 -0.496,3.096 -1.482,4.08 -0.992,0.996 -2.349,1.489 -4.085,1.489 h -5.563 c -1.737,0 -3.093,-0.493 -4.085,-1.489 -0.994,-0.984 -1.491,-2.344 -1.491,-4.08 v -46.4 c 0,-4.449 0.844,-8.725 2.509,-12.805 1.664,-4.085 3.993,-7.646 6.966,-10.677 2.966,-3.027 6.555,-5.44 10.75,-7.236 4.216,-1.786 8.919,-2.691 14.113,-2.691 5.199,0 9.902,0.905 14.11,2.691 4.202,1.796 7.792,4.209 10.759,7.236 2.966,3.031 5.299,6.592 6.966,10.677 1.666,4.08 2.503,8.354 2.503,12.805 v 46.4 c 0,1.736 -0.494,3.096 -1.481,4.08 -0.996,0.996 -2.362,1.489 -4.089,1.489 h -5.568 z"
     id="path11"
     inkscape:connector-curvature="0"
     style="fill:#1a80c1" /><path
     d="m 212.289,208.15702 c -1.725,0 -3.127,-0.31 -4.174,-0.933 -1.055,-0.614 -1.89,-1.973 -2.504,-4.082 l -25.424,-73.305 c -0.623,-1.61 -0.556,-2.878 0.188,-3.812 0.739,-0.928 1.964,-1.39 3.708,-1.39 h 6.871 c 3.331,0 5.438,1.48 6.301,4.458 l 17.643,55.117 c 0.362,1.365 0.98,2.046 1.845,2.046 0.865,0 1.483,-0.681 1.865,-2.046 l 17.623,-55.117 c 0.867,-2.978 2.971,-4.458 6.317,-4.458 h 6.86 c 1.733,0 2.97,0.461 3.716,1.39 0.739,0.934 0.801,2.201 0.179,3.812 l -25.425,73.305 c -0.619,2.109 -1.453,3.468 -2.506,4.082 -1.053,0.623 -2.438,0.933 -4.176,0.933 h -8.907 z"
     id="path13"
     inkscape:connector-curvature="0"
     style="fill:#1a80c1" /><path
     d="m 293.624,111.64602 c -1.732,0 -3.089,-0.489 -4.079,-1.489 -0.993,-0.987 -1.484,-2.35 -1.484,-4.081 v -9.276 c 0,-1.731 0.492,-3.092 1.484,-4.088 0.989,-0.986 2.346,-1.482 4.079,-1.482 h 5.567 c 1.735,0 3.089,0.496 4.085,1.482 0.979,0.996 1.483,2.356 1.483,4.088 v 9.276 c 0,1.731 -0.505,3.093 -1.483,4.081 -0.996,1 -2.35,1.489 -4.085,1.489 h -5.567 z m 0,96.511 c -1.732,0 -3.089,-0.493 -4.079,-1.489 -0.993,-0.984 -1.484,-2.344 -1.484,-4.08 v -72.382 c 0,-1.736 0.492,-3.093 1.484,-4.089 0.989,-0.99 2.346,-1.48 4.079,-1.48 h 5.567 c 1.735,0 3.089,0.49 4.085,1.48 0.979,0.996 1.483,2.353 1.483,4.089 v 72.382 c 0,1.736 -0.505,3.096 -1.483,4.08 -0.996,0.996 -2.35,1.489 -4.085,1.489 h -5.567 z"
     id="path15"
     inkscape:connector-curvature="0"
     style="fill:#1a80c1" /><path
     d="m 334.458,208.15702 c -1.736,0 -3.104,-0.493 -4.085,-1.489 -0.996,-0.984 -1.482,-2.344 -1.482,-4.08 v -47.326 c 0,-9.031 2.598,-16.395 7.797,-22.084 5.189,-5.695 12.436,-8.54 21.708,-8.54 h 6.687 c 1.732,0 3.089,0.49 4.08,1.48 0.985,0.996 1.482,2.353 1.482,4.089 v 4.637 c 0,1.736 -0.497,3.098 -1.482,4.084 -0.991,0.996 -2.348,1.484 -4.08,1.484 h -5.567 c -4.704,0 -8.199,1.454 -10.485,4.362 -2.286,2.909 -3.437,6.717 -3.437,11.413 v 46.399 c 0,1.737 -0.494,3.097 -1.485,4.081 -0.99,0.996 -2.356,1.489 -4.081,1.489 h -5.57 z"
     id="path17"
     inkscape:connector-curvature="0"
     style="fill:#1a80c1" /><path
     d="m 423.535,210.00802 c -6.058,0 -11.719,-1.143 -16.975,-3.436 -5.259,-2.285 -9.865,-5.415 -13.827,-9.368 -3.961,-3.962 -7.084,-8.571 -9.372,-13.831 -2.288,-5.258 -3.433,-10.917 -3.433,-16.981 0,-6.061 1.145,-11.717 3.433,-16.978 2.288,-5.261 5.411,-9.864 9.372,-13.828 3.962,-3.955 8.568,-7.082 13.827,-9.37 5.256,-2.292 10.917,-3.439 16.975,-3.439 6.071,0 11.721,1.146 16.987,3.439 5.263,2.288 9.87,5.415 13.826,9.37 3.962,3.964 7.084,8.567 9.372,13.828 2.293,5.261 3.433,10.917 3.433,16.978 0,6.064 -1.14,11.725 -3.433,16.981 -2.288,5.26 -5.41,9.869 -9.372,13.831 -3.956,3.953 -8.563,7.083 -13.826,9.368 -5.266,2.294 -10.916,3.436 -16.987,3.436 z m 0,-15.777 c 3.84,0 7.397,-0.741 10.679,-2.225 3.278,-1.483 6.118,-3.463 8.533,-5.938 2.42,-2.473 4.297,-5.415 5.665,-8.814 1.36,-3.405 2.038,-7.023 2.038,-10.862 0,-3.833 -0.678,-7.449 -2.038,-10.853 -1.368,-3.406 -3.245,-6.342 -5.665,-8.819 -2.415,-2.476 -5.255,-4.453 -8.533,-5.938 -3.28,-1.486 -6.839,-2.227 -10.679,-2.227 -3.831,0 -7.382,0.739 -10.668,2.227 -3.276,1.483 -6.125,3.462 -8.536,5.938 -2.401,2.479 -4.301,5.413 -5.655,8.819 -1.367,3.402 -2.047,7.02 -2.047,10.853 0,3.839 0.68,7.457 2.047,10.862 1.354,3.399 3.254,6.343 5.655,8.814 2.411,2.475 5.26,4.453 8.536,5.938 3.286,1.484 6.837,2.225 10.668,2.225 z"
     id="path19"
     inkscape:connector-curvature="0"
     style="fill:#1a80c1" /><path
     d="m 562.733,187.73702 c 1.242,1.237 1.793,2.601 1.674,4.083 -0.118,1.485 -0.682,2.723 -1.674,3.712 -3.948,3.964 -8.593,7.366 -13.91,10.21 -5.327,2.843 -12.19,4.268 -20.609,4.268 -6.062,0 -11.688,-1.085 -16.887,-3.25 -5.189,-2.159 -9.683,-5.192 -13.456,-9.092 -3.771,-3.897 -6.746,-8.594 -8.909,-14.104 -2.157,-5.507 -3.253,-11.543 -3.253,-18.098 v -40.83 c 0,-6.431 1.096,-12.405 3.253,-17.914 2.163,-5.5 5.14,-10.201 8.909,-14.1 3.773,-3.902 8.267,-6.962 13.456,-9.188 5.199,-2.229 10.824,-3.345 16.887,-3.345 4.089,0 7.801,0.406 11.144,1.21 3.339,0.805 6.364,1.823 9.085,3.061 2.729,1.237 5.11,2.627 7.148,4.174 2.047,1.551 3.741,3.006 5.104,4.367 2.599,2.595 2.599,5.193 0,7.79 l -4.263,4.273 c -1.243,1.234 -2.415,1.89 -3.533,1.944 -1.11,0.063 -2.416,-0.584 -3.897,-1.944 -1.619,-1.487 -4.048,-3.219 -7.326,-5.195 -3.275,-1.985 -7.769,-2.97 -13.462,-2.97 -3.954,0 -7.449,0.714 -10.479,2.133 -3.042,1.424 -5.635,3.407 -7.803,5.937 -2.156,2.54 -3.794,5.508 -4.917,8.909 -1.106,3.403 -1.67,7.023 -1.67,10.858 v 40.831 c 0,8.288 2.204,15.006 6.587,20.142 4.393,5.134 10.494,7.697 18.282,7.697 5.457,0 10.051,-1.018 13.825,-3.062 3.777,-2.04 6.836,-4.109 9.19,-6.216 1.11,-0.989 2.384,-1.547 3.81,-1.67 1.411,-0.118 2.75,0.435 3.983,1.67 l 3.711,3.709 z"
     id="path21"
     inkscape:connector-curvature="0"
     style="fill:#1a80c1" /><path
     d="m 639.756,208.15702 c -1.729,0 -3.094,-0.558 -4.076,-1.676 -1,-1.11 -1.483,-2.341 -1.483,-3.708 0,-0.743 -0.282,-1.207 -0.843,-1.394 -0.551,-0.188 -1.081,0.033 -1.572,0.649 -1.736,2.353 -4.301,4.268 -7.703,5.756 -3.401,1.479 -7.521,2.224 -12.337,2.224 -4.333,0 -8.299,-0.809 -11.886,-2.409 -3.587,-1.607 -6.68,-3.9 -9.277,-6.864 -2.598,-2.968 -4.645,-6.529 -6.127,-10.678 -1.486,-4.145 -2.229,-8.688 -2.229,-13.636 v -16.525 c 0,-4.822 0.865,-9.4 2.61,-13.73 1.725,-4.329 4.17,-8.073 7.317,-11.23 3.156,-3.152 6.902,-5.657 11.232,-7.516 4.335,-1.855 9.098,-2.783 14.293,-2.783 h 27.656 c 1.725,0 3.089,0.49 4.071,1.48 1.004,0.996 1.487,2.353 1.487,4.089 v 72.381 c 0,1.737 -0.483,3.097 -1.487,4.081 -0.982,0.996 -2.348,1.489 -4.071,1.489 h -5.575 l 0,0 z m -5.561,-65.89 c 0,-1.237 -0.618,-1.856 -1.861,-1.856 h -13.913 c -6.196,0 -10.989,1.92 -14.386,5.755 -3.41,3.832 -5.103,8.413 -5.103,13.73 v 18.375 c 0,4.708 1.391,8.538 4.176,11.511 2.778,2.966 6.646,4.449 11.599,4.449 3.332,0 6.214,-0.585 8.634,-1.759 2.405,-1.176 4.419,-2.756 6.024,-4.735 1.605,-1.972 2.811,-4.173 3.623,-6.589 0.792,-2.413 1.207,-4.915 1.207,-7.513 v -31.368 l 0,0 z"
     id="path23"
     inkscape:connector-curvature="0"
     style="fill:#1a80c1" /><path
     d="m 678.729,208.15702 c -1.725,0 -3.089,-0.493 -4.074,-1.489 -1.002,-0.984 -1.493,-2.344 -1.493,-4.08 v -47.326 c 0,-9.031 2.603,-16.395 7.797,-22.084 5.194,-5.695 12.437,-8.54 21.717,-8.54 h 6.68 c 1.735,0 3.087,0.49 4.091,1.48 0.983,0.996 1.483,2.353 1.483,4.089 v 4.637 c 0,1.736 -0.5,3.098 -1.483,4.084 -1.004,0.996 -2.354,1.484 -4.091,1.484 h -5.562 c -4.707,0 -8.199,1.454 -10.491,4.362 -2.288,2.909 -3.438,6.717 -3.438,11.413 v 46.399 c 0,1.737 -0.488,3.097 -1.479,4.081 -0.987,0.996 -2.351,1.489 -4.078,1.489 h -5.579 z"
     id="path25"
     inkscape:connector-curvature="0"
     style="fill:#1a80c1" /><path
     d="m 284.785,111.64602 c -1.729,0 -3.093,-0.489 -4.076,-1.489 -0.994,-0.987 -1.482,-2.35 -1.482,-4.081 v -9.276 c 0,-1.731 0.488,-3.092 1.482,-4.088 0.983,-0.986 2.349,-1.482 4.076,-1.482 h 5.568 c 1.736,0 3.089,0.496 4.087,1.482 0.982,0.996 1.48,2.356 1.48,4.088 v 9.276 c 0,1.731 -0.498,3.093 -1.48,4.081 -0.998,1 -2.351,1.489 -4.087,1.489 h -5.568 z m 0,96.511 c -1.729,0 -3.093,-0.493 -4.076,-1.489 -0.994,-0.984 -1.482,-2.344 -1.482,-4.08 v -72.382 c 0,-1.736 0.488,-3.093 1.482,-4.089 0.983,-0.99 2.349,-1.48 4.076,-1.48 h 5.568 c 1.736,0 3.089,0.49 4.087,1.48 0.982,0.996 1.48,2.353 1.48,4.089 v 72.382 c 0,1.736 -0.498,3.096 -1.48,4.08 -0.998,0.996 -2.351,1.489 -4.087,1.489 h -5.568 z"
     id="path27"
     inkscape:connector-curvature="0"
     style="fill:#3fa475" /><path
     d="m 275.946,111.64602 c -1.729,0 -3.085,-0.489 -4.076,-1.489 -0.996,-0.987 -1.486,-2.35 -1.486,-4.081 v -9.276 c 0,-1.731 0.491,-3.092 1.486,-4.088 0.991,-0.986 2.348,-1.482 4.076,-1.482 h 5.568 c 1.736,0 3.093,0.496 4.084,1.482 0.982,0.996 1.482,2.356 1.482,4.088 v 9.276 c 0,1.731 -0.5,3.093 -1.482,4.081 -0.991,1 -2.348,1.489 -4.084,1.489 h -5.568 z m 0,96.511 c -1.729,0 -3.085,-0.493 -4.076,-1.489 -0.996,-0.984 -1.486,-2.344 -1.486,-4.08 v -72.382 c 0,-1.736 0.491,-3.093 1.486,-4.089 0.991,-0.99 2.348,-1.48 4.076,-1.48 h 5.568 c 1.736,0 3.093,0.49 4.084,1.48 0.982,0.996 1.482,2.353 1.482,4.089 v 72.382 c 0,1.736 -0.5,3.096 -1.482,4.08 -0.991,0.996 -2.348,1.489 -4.084,1.489 h -5.568 z"
     id="path29"
     inkscape:connector-curvature="0"
     style="fill:#8ebd40" /></svg>