<?xml version="1.0" encoding="UTF-8" standalone="no"?>
<!-- Generator: Adobe Illustrator 15.1.0, SVG Export Plug-In . SVG Version: 6.00 Build 0)  -->

<svg
   xmlns:dc="http://purl.org/dc/elements/1.1/"
   xmlns:cc="http://creativecommons.org/ns#"
   xmlns:rdf="http://www.w3.org/1999/02/22-rdf-syntax-ns#"
   xmlns:svg="http://www.w3.org/2000/svg"
   xmlns="http://www.w3.org/2000/svg"
   xmlns:sodipodi="http://sodipodi.sourceforge.net/DTD/sodipodi-0.dtd"
   xmlns:inkscape="http://www.inkscape.org/namespaces/inkscape"
   version="1.1"
   id="Ebene_1"
   x="0px"
   y="0px"
   width="381.01999"
   height="381.01999"
   viewBox="0 0 381.01999 381.01999"
   enable-background="new 0 0 841.891 595.279"
   xml:space="preserve"
   inkscape:version="0.48.4 r9939"
   sodipodi:docname="enviroCar_Icon_13-06-08.svg"
   inkscape:export-filename="/home/dustin/car.io-www/assets/enviroCar_Icon_13-06-08.png"
   inkscape:export-xdpi="11.34"
   inkscape:export-ydpi="11.34"><metadata
     id="metadata23"><rdf:RDF><cc:Work
         rdf:about=""><dc:format>image/svg+xml</dc:format><dc:type
           rdf:resource="http://purl.org/dc/dcmitype/StillImage" /><dc:title></dc:title></cc:Work></rdf:RDF></metadata><defs
     id="defs21" /><sodipodi:namedview
     pagecolor="#ff00ff"
     bordercolor="#666666"
     borderopacity="1"
     objecttolerance="10"
     gridtolerance="10"
     guidetolerance="10"
     inkscape:pageopacity="0"
     inkscape:pageshadow="2"
     inkscape:window-width="1440"
     inkscape:window-height="853"
     id="namedview19"
     showgrid="false"
     showguides="true"
     inkscape:guide-bbox="true"
     inkscape:zoom="1.585811"
     inkscape:cx="192.91317"
     inkscape:cy="197.82158"
     inkscape:window-x="-2"
     inkscape:window-y="-3"
     inkscape:window-maximized="1"
     inkscape:current-layer="Ebene_1"
     fit-margin-top="0"
     fit-margin-left="0"
     fit-margin-right="0"
     fit-margin-bottom="0"
     borderlayer="true"
     showborder="true"><sodipodi:guide
       orientation="0,1"
       position="174.08888,91.359228"
       id="guide3004" /></sodipodi:namedview><g
     id="g3"
     transform="translate(-230.7513,-80.654464)"><path
       d="m 575.4973,80.654464 h -308.473 c -20.034,0 -36.273,16.242 -36.273,36.272996 v 308.474 c 0,20.031 16.239,36.273 36.273,36.273 h 308.474 c 20.032,0 36.273,-16.242 36.273,-36.273 v -308.474 c 0,-20.030996 -16.241,-36.272996 -36.274,-36.272996 l 0,0 z"
       id="path5"
       inkscape:connector-curvature="0"
       style="fill:#ffffff" /></g><path
     d="m 197.23692,281.79421 c -1.715,-3.097 -2.366,-6.795 -1.602,-10.532 4.647,-22.675 15.005,-43.879 29.869,-61.351 5.505,-6.465 15.204,-7.241 21.638,-1.734 6.439,5.496 7.29,15.183 1.765,21.676 -11.562,13.514 -19.562,29.992 -23.188,47.603 -1.7,8.304 -9.834,13.659 -18.145,11.959 -4.571,-0.964 -8.24,-3.844 -10.337,-7.621 z"
     id="path7"
     inkscape:connector-curvature="0"
     style="fill:#177fc1" /><path
     d="m 124.05093,287.05732 c -1.445,-2.583 -2.141,-5.607 -1.87,-8.761 4.722,-53.806 29.494,-103.041 69.693,-138.688 6.348,-5.633 16.067,-5.038 21.7,1.293 5.477,6.195 5.059,16.089 -1.314,21.722 -34.293,30.404 -55.428,72.442 -59.459,118.352 -0.758,8.456 -8.197,14.709 -16.643,13.973 -5.292,-0.477 -9.706,-3.551 -12.107,-7.891 z"
     id="path9"
     inkscape:connector-curvature="0"
     style="fill:#72b471" /><path
     d="m 48.742649,290.70712 c -1.339,-2.4 -2.048,-5.214 -1.906,-8.186 4.201,-83.389 44.351,-160.379 110.197001,-211.284004 6.702,-5.188 16.345,-3.971 21.521,2.753 5.136,6.748 3.972,16.369 -2.773,21.541 -58.685,45.399004 -94.504001,114.115004 -98.252001,188.506004 -0.404,8.484 -7.638,15.006 -16.089,14.566 -5.515,-0.258 -10.212,-3.397 -12.698,-7.896 z"
     id="path11"
     inkscape:connector-curvature="0"
     style="fill:#8cbd3f" /><path
     d="m 316.0627,305.86454 c -4.053,0 -7.227,-1.155 -9.536,-3.493 -2.324,-2.306 -3.472,-5.477 -3.472,-9.529 v -21.679 c 0,-4.05 1.146,-7.22 3.472,-9.544 2.311,-2.306 5.483,-3.476 9.536,-3.476 h 13.021 c 4.046,0 7.22,1.17 9.521,3.476 2.299,2.324 3.479,5.494 3.479,9.544 v 21.679 c 0,4.054 -1.181,7.225 -3.479,9.529 -2.303,2.338 -5.477,3.493 -9.521,3.493 h -13.021 z"
     id="path13"
     inkscape:connector-curvature="0"
     style="fill:#177fc1" /><path
     d="m 295.4037,305.86454 c -4.031,0 -7.213,-1.155 -9.516,-3.493 -2.316,-2.306 -3.472,-5.477 -3.472,-9.529 v -21.679 c 0,-4.05 1.154,-7.22 3.472,-9.544 2.303,-2.306 5.482,-3.476 9.516,-3.476 h 13.028 c 4.039,0 7.213,1.17 9.536,3.476 2.296,2.324 3.458,5.494 3.458,9.544 v 21.679 c 0,4.054 -1.162,7.225 -3.458,9.529 -2.323,2.338 -5.497,3.493 -9.536,3.493 h -13.028 z"
     id="path15"
     inkscape:connector-curvature="0"
     style="fill:#3ea475" /><path
     d="m 274.7367,305.86454 c -4.031,0 -7.198,-1.155 -9.508,-3.493 -2.316,-2.306 -3.472,-5.477 -3.472,-9.529 v -21.679 c 0,-4.05 1.154,-7.22 3.472,-9.544 2.31,-2.306 5.477,-3.476 9.508,-3.476 h 13.036 c 4.053,0 7.212,1.17 9.543,3.476 2.289,2.324 3.458,5.494 3.458,9.544 v 21.679 c 0,4.054 -1.169,7.225 -3.458,9.529 -2.331,2.338 -5.49,3.493 -9.543,3.493 h -13.036 z"
     id="path17"
     inkscape:connector-curvature="0"
     style="fill:#8cbd3f" /></svg>